<svg id="Layer_2" data-name="Layer 2" xmlns="http://www.w3.org/2000/svg" viewBox="0 0 661.68 866.53"><defs><style>.cls-1{fill:#ed1c24;}</style></defs><title>abraxas_pre_logo_rooster</title><path class="cls-1" d="M262.05,382.07c-7.52-11.22-15.11-22.38-22.53-33.66C211.46,305.78,196,258.15,186,208.75c-5.72-28.06-8.88-56.64-13.19-85l3.27-.63,1.12,3.59c4.15-2.84-3.13-13.47,7.7-12.39.75-19.19,21.14-13.08,30.23-22l-2.28,9.89c5.38-1.27,10.39-2.71,15.5-3.53,2.24-.36,4.68.78,7,.87,5.23.21,6.46,1.33,4.8,7.3-1.78,6.39-.4,13.64-.4,20.52l2.28,0c0-5.36-.23-10.74.12-16.07.13-2,1.85-5.53,2.49-5.45,11.68,1.43,25.9-.2,34.26,6,10.24,7.57,15.56,21.78,23,33.13,1.08,1.65,2,3.39,3,5.11-.3.48-.61.93-.93,1.39l1.14,0-.5-1.58,3.17.55,1.16.78,2.76,8.42,1.11,3.9-.24-.31.06,2.15.09,1.77,1.56,3.49,2,.12,2,.07-.26-.24,1.63,1.83c.15-1.63.29-3.26.44-4.9l-.06-3.39,0,.23c4.73,5.28,9.88,10.25,14.11,15.91,7.7,10.34,13.82,22,22.47,31.45,16.15,17.57,33.63,33.91,50.58,50.74.54.54,1.32.85,2.9.68-35.1-42.07-51-94.68-76.76-137.62V83.82c7.29,11.61,13.1,3.69,18.39,2.22,6.18-1.73,10.56-4.62,16.84,1.26,4.42,4.13,12,5,18.25,7,3,1,6.17,1.27,9.9,2-1.53-3.58-2.43-8-5-11-3.64-4.33-8.5-7.64-12.84-11.38l2.3-3.2L390,75.48c.18-.44.86-2,1.51-3.54,23.4,8.66,39.36,26.42,55.68,43.85Q511.51,184.54,576.09,253a77.37,77.37,0,0,0,6,5.18c-9-28-17.68-55.23-26.38-82.42l2.24-.86c1.24,2.59,2.47,5.18,4.76,10,0-7.71-.3-13,.15-18.24.19-2.25,2-4.36,3-6.54l4.17,4.92c-1,2.51-3.14,5.21-2.76,7.48,1.62,9.58,3.8,19.08,6.17,28.51,1.23,4.91,3.28,9.62,5,14.42l.75-.47q-4.66-25.08-9.34-50.16c1.1-4.51,2.19-9,3.81-15.67,2.92,5.4,5.08,9.38,7.66,14.13,1.34-2.44,2.57-4.69,4.4-8l2.78,4.52c2-.95,5.15-3,5.6-2.54,2.23,2.35,3.76,5.37,6,8.94,0-6.53-.44-12.32.1-18,.84-8.9,11.78-12.67,21.71-8.55,16.4,6.81,29.37,18.11,40.76,31.13,35.44,40.53,71,80.95,105.41,122.39,16.7,20.13,31.2,42,40.85,66.94,12,30.95,2.61,55.77-20.56,76.47-10.46,9.35-22.9,16.48-34.32,24.53,2.12,0,5.45.09,8.78,0,17.34-.51,34.67-1.27,52-1.54,10.32-.16,13.41,1.67,19.55,9.73-30.14,4.05-57.88,14.15-82.1,32.23-19.67,14.68-36.78,32-37.75,58.55-.29,8.07,1.59,17.3,5.57,24.22,5.94,10.34,14.63,19.1,22.44,28.89L706,598.08c7.67,11.18,19.36,10.74,28.6,15.06,8.13,3.8,16.36,7.42,24.68,10.77,15.15,6.1,30.4,11.93,45.59,17.92a19.1,19.1,0,0,1,3.09,1.93c-5.13,6.13-44.11,7.08-66.8,1.62,8.13,10.14-6.06,11.29-6.6,18q-3.81,9.42-7.61,18.85c-10,18.58-20.75,36.78-29.63,55.86-6.87,14.75-15.21,27.77-27.63,38.33-4.3,3.66-7.49,8.62-11.19,13l1.6,1.57c2.12-1.9,4.36-3.68,6.33-5.73,8.45-8.75,16.83-17.57,25.23-26.37C680,779.31,664.07,795.15,642,804c-3.51,1.41-7.9.62-12.26.86-.51,2.95-11.71,7.74-15.33,3.71-6.79-7.57-14.4-2-21.41-3.38-5.29-1-11,.43-16.63.78,0,8.56,1.13,9.6,15.08,15.5l-42.51,2.43,14.36-7.74c-2.77-4.6-5.16-8.6-7.8-13-12.92,8.24-22.6.11-32.35-7.71l-1.45,2.06,16.74,15c-9.47,2.31-17.27,4.14-25,6.19a6.05,6.05,0,0,0-3.52,2.62c-3.37,6.4-6.37,13-9.77,19.4-.95,1.8-2.82,3.11-4.27,4.64a2.3,2.3,0,0,1-.54.81c-.43,1-.86,1.91-1.3,2.86a3.19,3.19,0,0,1-.82.86l-1.11,2.81-1.18,1.44-.11.47-.47-.09c-.39.6-.78,1.19-1.18,1.78l-.42,2-1.23,0c-.41-2-1.81-4.53-1.07-5.91q8.46-15.63,17.69-30.83c3.78-6.23,7.81-12.07-.57-17.05q-30.66,47.9-61.55,96.14l-2.31-1.24c.36-1.32.43-2.82,1.12-3.93,14.26-22.72,28.76-45.3,42.82-68.15a253.71,253.71,0,0,0,13.51-25.85c1.27-2.72.65-6.33-.69-9.56-13.63,21-26.68,42.37-41.06,62.83-14.23,20.24-23.25,44.88-45.33,57.54,16.16-24.94,32.9-50.53,49.37-76.29,10.34-16.19,20.49-32.51,30.26-49,2.12-3.59,3.58-8.5,3.1-12.54-2.79-23.5,2.77-46,7.69-68.52,7-31.91,20-61.56,35.31-90.29,2-3.67,3.73-7.42,5.59-11.14l-2-1.21c-1.72,2.75-3.54,5.43-5.13,8.25-26.61,46.87-52.9,93.92-79.92,140.56-10.49,18.12-22.6,35.3-34,52.91a79.37,79.37,0,0,1,3.29-8.39c7.15-13.61,14.45-27.13,21.7-40.69,13.75-24.79,27.56-49.56,41.14-74.45,1-1.84.36-4.56.49-6.87-.32-12.61,9-20.77,14.59-30.47,8.94-15.47,19.25-30.15,28.69-45.35,5.88-9.47,11.22-19.28,16.8-28.93l-1.95-1.19C524.21,600,502.56,631,482.73,663c-20,32.4-39.55,65.25-56.92,99.12-17.19,33.51-31.42,68.53-48.74,103,.47-3.62.12-7.59,1.52-10.8,13.47-31,27.26-61.77,40.88-92.67a65.07,65.07,0,0,0,2.34-7.8l-3.63-1.54c-3.75,7.87-7.39,15.79-11.28,23.59-4.25,8.51-8.66,17-13.14,25.35-1.83,3.45-4,6.71-6.05,10.06-.44-2.63-.87-5.26-1.48-9l-5.76,7.28c8.25-18.59,16.15-37.35,24.87-55.72,6.48-13.66,14-26.8,21-40.23.47-.91.06-2.28-1.21-4.06-50.9,73.25-102.53,145.9-139.58,227.68L283.26,936q9.93-23.1,19.87-46.18,3-8,6-15.93c0-1,0-1.95.05-2.93l-.28.33,2.13-4-.29.27,2.13-.08,3.8-5.31,1.11-7.42a1,1,0,0,1-1.49-.15l.2,0-1.26-2.91-1.84,1.64,2.42-8.6-3.17-1.48c-1.82,2.63-3.85,5.14-5.43,7.92C301,862,294.72,872.73,289.1,883.79c-3.26,6.42-9.12,6.49-14.66,7.87l.26.23-11.58-13-10.62,4.39-.73-6-5.5,2.62L243,876.74c.06-4.06-1-8.56.39-12.1a73.77,73.77,0,0,0,5.12-30.15c-.39-14.3,5.09-28.11,13.09-40.61,3-4.68,4-10.63,5.92-16a37.45,37.45,0,0,1,1.7-4c22.22-44.48,44.14-89.08,72.53-130.18,22.25-32.23,44.74-64.23,73.71-90.85,9.24-8.49,20.66-14.55,30.66-22.26,19.84-15.31,43-24.79,64.67-36.75,5.38-3,11.4-4.78,17-8.87-4.59,0-9.22-.39-13.76.07-41.93,4.17-82.66-1.19-122.49-14.65-29.25-9.89-57.06-22.66-82.17-40.73-5.62-4-10.06-9.71-15-14.63ZM395.54,718.74l1.79-1.89,1.87-3.31-.15-2.39c.51-1.25,1-2.51,1.52-3.76a84.76,84.76,0,0,0,6.09-6.2c10.58-13.2,21.06-26.49,31.57-39.74L467,627.85l5.58-8.8,3.67-3.49,1.34-2,2.78-3.39,3.29-3.78,3.85-1.88-.26.31c.2-1.23.4-2.46.59-3.69l-1.85-.2,5-7.41c-30.86,7.92-178.9,213.1-175.27,242.43,7.06-8.53,15-16.3,20.73-25.42,13.44-21.3,25.57-43.43,38.83-64.84,4.8-7.74,11.34-14.4,17.08-21.56l-.18-1.79.92-2ZM463.3,291.9l.25.23v-2.42c0-.8.06-1.6.08-2.4l-5.89-10.07-1.82.12-1.95.11-1.83-3.93-1.87.23c.14,1.22.27,2.44.41,3.67l-.25-.28v3.94l.26-.23-3.35-1.1-.68,1.22,4.12,3.73,5.37,5.42,1.89.2-.31-.31,2.15,2.11-.26-.26,2.11,4-.27-.35c.06,1.22.13,2.44.19,3.66l-.18,3.36,3.85,6,4.23,5.7L472.5,316l2.08-.16,1.84,4-.28-.38,2.41,2.08a8.93,8.93,0,0,1,1.27,0,2,2,0,0,1,1.62.38l1.4.89c0-.37-.07-.75-.11-1.13l-1.53.55-1.35-4.61.28.34-2.11-2.1.28.27-2.15-3.7.26-2.81-1-2.91-3.55,0-.81-.15-2.28-5.66c-.62-1-1.23-2.08-1.84-3.12l.19-2.05L465.25,292Zm13.1,110.33-.25.17,2.11-.55,18.54,7.95,10.32,3.55c.5-.84,1-1.68,1.51-2.53q-42.94-37.35-85.87-74.72L393.42,305c0-.61.08-1.22.13-1.84l-30.46-27.67L358.81,268c4.43-4.13,4.06-7.56-.17-12.18-8.15-8.91-15.32-18.71-23.26-27.83-2.68-3.06-6.47-5.15-9.76-7.69-.57-2.54-.44-5.59-1.84-7.52-5.29-7.25-11.08-14.12-16.68-21.14l-23.72-34.25c2.38,2.07,5.16,3.83,7.08,6.26,23.5,29.71,45.63,60.61,70.63,89,25.63,29.11,53.67,56.13,81.37,83.35,11.64,11.43,25.1,21,37.73,31.44l9.49,6.29,1.81-2.59-52-47.9c-4.15-3.44-8.65-6.54-12.36-10.41-3.88-4.05-6.58-9.25-10.54-13.21-12-12-25.09-23.12-36.54-35.68-15.89-17.43-31-35.58-45.85-53.93s-29-37.45-43.47-56.22l-22.23-29.65c-1.38,4.28-2,6.07-2.53,7.86l-1.19,1.62q1.83,4.17,3.64,8.34,1,6.93,2,13.86l-1.75,2c-3.54,8.86.33,16,5.38,22.81l-.12-.27q1.88,4.44,3.74,8.89l.27,3.84,1.83,1.95.55-1.25,1.12,1.07,1.88-.39,1.89,1.82,4.4,5.8h.16l4.3,1.87,2.14,1.54-.06,3.67c0,.53-.06,1.05-.12,1.57l4.38,6.13,2.46,1.49,2.55,3.8,1.22,0a28.19,28.19,0,0,0,2.66,4.68q29.38,34.5,58.89,68.91L399.09,327l10.08,9.41c6.36,12.12,16.27,20.44,28.34,26.44,7.34,6.21,15,12.09,21.88,18.77,3.09,3,4.64,7.6,6.89,11.46-.33.52-.65,1-.95,1.56L443.05,379c.13,2.57.23,4.7.34,6.83-5.1-3-11-5.18-15.13-9.15-10.61-10.13-20.46-21.05-30.6-31.67-26.53-27.77-53.48-55.14-79.35-83.51-10.09-11.06-17.59-24.46-26.56-36.57-3.66-4.95-8.11-9.31-12.2-13.93-1.45,2.39-1.44,3.62-1,4.66q6.87,16.08,13.85,32.1c0,2.9-1,6.15,0,8.64,15.64,39.49,39.1,73.48,71.74,100.9,7.17,6,14.08,12.4,21.7,17.8,5.23,3.71,12.35,5,17.1,9.12,12.59,10.95,27.35,16.86,43.55,22.13l-10.17-11.12c8.2,5.68,17.07,8.81,27.2,7.12a95.48,95.48,0,0,0,9.32,4.3c.62.22,2-1.62,3-2.51C476,403.51,476.22,402.87,476.4,402.23ZM315,347l-1.65,1.2,1.27.76q6.93,7.33,13.87,14.65l2.5-2.58-14.91-14ZM492.88,625l-1.47,3.95-4,3.21,1.41,1.18c.78-1.55,1.55-3.1,2.31-4.67.5-1.32,1-2.63,1.51-4l3-.74v-3.07l-1.25.26c.43,1,.86,1.94,1.24,2.84Zm17.53-23.07c-.17.87-.35,1.75,0,.12.5,1.57.21.66,0-.2l1.93.11-.23-2,2.75-2.79c.24-.35.49-.69.74-1l-.57,1.2c-.92.92-1.84,1.84-2.69,2.83Zm7-11.33c.67-1,1.34-2.09,2.05-3.14l.57.17-.39-.27c-.72,1.09-1.44,2.19-2.11,3.33l.8,1.44ZM452.33,698.23c.52-1.34,1-2.67,1.57-4l1.71-3.83,5.9-8.73,3.71-5.46c.6-1.22,1.21-2.44,1.81-3.67l2.86-.76v-3.32l-.5,0c.2,1.15.39,2.29.54,3.38l-2.7.87-1.8,3.61-3.06-.41h.27c-1.56,2-3.11,4-4.67,6l-1.85,3.36c0,.72,0,1.44,0,2.16-.11,1-.22,2.09-.3,3.17-.57,1.27-1.14,2.53-1.69,3.82l-1.65,3.92-1.89,2.74,1.51.61C452.2,700.58,452.27,699.4,452.33,698.23ZM618,644.83,616,647l1.38,3.43q-2.51,6.4-5,12.8l-2.07-3.65c-3.23-2.69-3.82-2.92-5.66,1.76-6.66,16.91-13.73,33.73-19,51.08-5,16.18-2.94,32.53,3.88,48.21,6.2,14.25,22.39,21.75,32.8,17.36l-20-8.19c-1.22-3.33-2.45-6.65-3.76-10.23,20.64-24.48,47.74-118.29,37.66-136.07L626.83,634l-1.34-.07L623.2,636l.24-.35H620.8l-.91.11L618,639.25l-.12,2-.12,3.91Zm-7.61-275.49L584,347.05l-16.56-16.37L515,280.27l-1.59,1.57,25.47,26.64-1.34,1.69-6.3-3.49c.59,2.31.62,3.91,1.35,5,15.67,24,31.58,47.93,47.06,72.1,4.95,7.73,8.82,16.16,14.82,27.31l46.13-8.52L594,363.29v-4.92q8.32,5.4,16.64,10.81a148.84,148.84,0,0,0,39,28.45L652,395q-3.13-3.74-6.26-7.46c-3.5-4.46-6.53-9.41-10.6-13.26-7.92-7.49-16.42-14.36-24.69-21.48L579.2,325.09,559,306.73c-.16-1.47.25-3.52-.57-4.33q-28.5-28.11-57.24-56c2.34,4.91,5.82,8.85,9.47,12.63q18.71,19.41,37.52,38.72c-6.56-5.78-13.47-11.21-19.6-17.42C517.76,269.47,507.47,258.11,497,247l-2.44,2.28c1.46,2.15,2.59,4.65,4.43,6.4,31.45,29.9,62.72,60,94.61,89.41,15.43,14.23,32.07,27.15,48.16,40.66-6-3.33-11.86-6.76-17.9-9.94C619.46,373.45,614.9,371.47,610.42,369.34ZM354.19,386c3.52,2.58,7.05,5.13,10.54,7.73,10,7.44,20.23,14.18,33,11.94l-56.13-33.9-1.46,1.58q7.18,6.45,14.36,12.91ZM588,464.37c-26.24,4.49-52.38,9.75-78.76,13.25-29.68,3.93-59-.5-87.91-7.51-10.8-2.61-21.54-5.46-32.31-8.2,2.57-.62,5.31-2.16,7.68-1.71,22.52,4.29,44.79,10.57,67.49,13a260.71,260.71,0,0,0,61.42-.59c24.44-3.25,48.54-9.65,72.43-16,9.1-2.42,19.68-4.66,26.52-16.78l-26,9.91,5.1-4.81c-13,2.47-25.08,6.18-37.26,9.53-9.1,2.51-18.33,4.56-27.5,6.82-13.38.47-26.76,1.09-40.14,1.39-52.3,1.17-102.15-8.09-147.54-35.52-14.19-8.57-28.63-16.91-41.9-26.77-10.17-7.56-20.3-16.21-27.47-26.47-6.38-9.11-12.16-18-22.9-25.08.8,3.66,1.29,5.89,1.78,8.12L244.58,341.4c-1.77,16.86,52.18,76.69,70.85,81.52L302.79,408c9.25,5.62,15.41,15,25.4,19.91,15.43,7.57,30.48,15.91,45.58,24.13,5.34,2.91,10.34,6.43,15.56,9.62a51.7,51.7,0,0,0,6.2,3.63c26.46,10.89,54.24,15.91,82.62,16a482.54,482.54,0,0,0,65.5-3.94c15.3-2.06,30.08-8,45.09-12.18l29.51-5.52c-.37-1.39-.74-2.77-1.12-4.15Zm-81.23-159.6c2.72,6.32,4.75,13.29,10.21,13.7,7.36,11.65,13.69,21.49,19.83,31.44,4.48,7.27,9.88,14.26,12.77,22.14,5.26,14.33,14.14,24.14,31.3,29.8L505.64,292v11.7A7.83,7.83,0,0,0,506.79,304.77ZM674.89,390c.15,1,.31,2,.46,2.95l19.9-3.36c-13.76,26.59-43.65,27.54-65.77,44.65,9.15-.73,16.07.21,21.76-2,22.23-8.68,44.81-17,65.82-28.12,15.6-8.3,21.9-23.57,18.76-42.12-2.59-15.3-10.18-27.94-19-40.05-10.59-14.6-21.65-28.86-32.5-43.26l-3.05,1.84q7.58,17.87,15.16,35.73c7.13,16.77,14.36,33.51,21.36,50.34,1.92,4.59,1.89,9.34-3.89,11.15-7.65,2.4-15.56,4-23.23,6.31C685.32,385.66,680.15,388,674.89,390ZM624.41,784.05c-26.07-5.53-46.35-16.15-60.95-36-4.45,9.65-2.91,18.8,6.06,23.4C585.75,779.74,602.47,787.47,624.41,784.05Zm5.71-66.6.83.16c5.44-11.45,11.84-22.56,16-34.44,4.3-12.16,6.35-25.11,9.57-37.66,1.56-6.09-.86-8.85-5.25-9.37C644.16,663.59,637.14,690.52,630.12,717.45Zm-77.43-1.23-2.26-.06c0-9-.82-18.13.23-27s4-17.61,6.09-26.4c-11.48,22.92-14.55,46.56-5.44,70.91.71,1.88,4.3,2.69,6.55,4-6-28.82-3.18-54.85,6.35-80.48C554.53,675.74,551,695.45,552.69,716.22ZM622.5,530.41l2.09,2.25,45.08-38.12c-.21-.44-.41-.89-.62-1.33l-54.37,26.18c3.9,5.69,5.45,5.67,17.41-.86ZM551.54,384l-46.31-70.09-3.21,2c7.42,11.74,14.26,23.9,22.41,35.11C532.37,361.91,534.7,377.21,551.54,384Zm86.16,65.65c-9.35.13-17.21,7.21-17.22,15.52,0,8.71,8.31,17.82,16.37,17.95,9.38.15,18-8.74,17.87-18.33C654.56,455.58,647.7,449.48,637.7,449.61Zm-8,253.55,2,.81c5.14-21.41,10.35-42.81,15.28-64.28.37-1.6-1.29-3.67-2.66-7.22C639.18,657.57,634.46,680.36,629.73,703.16Zm-314-310.88c21.77,18.52,44.8,32.77,69.77,41.21Zm176,50.82.24-2.22-64.12-8.39c-.11.84-.21,1.68-.32,2.53Zm-94.3-264.86-3.32,1.51,16.19,31.43,3.17-1.59Q405.42,193.91,397.39,178.24ZM445,296c-3.6-4.64-7.41-9.15-10.74-14-3.14-4.54-5.78-9.44-8.64-14.18l-2.3,1.7C424.3,283.07,436.69,288.09,445,296ZM620.67,420.37c.29,1,.59,2,.88,3.07L661,408.06l-.78-2ZM269.16,273.94l-3.05,1.57,12.47,24.21,3.09-1.59ZM575,725l3.22.51,5.28-30.28-3-.53ZM198,189l-1.88-.1q4,19.84,8,39.68l2.22-.43ZM681.15,555.11c-8.64,9.26-13.83,19.25-11.61,30.32C673,576.39,676.92,566.18,681.15,555.11ZM251.26,234.17l2.48-.63q-3.94-15.94-7.87-31.91l-2.12.52Q247.5,218.15,251.26,234.17Zm212.65,416-2.1-1.64-21.12,24.18,1.82,1.57ZM632,488.44l.59,2.14,30.12-7.76c-.24-.86-.47-1.73-.71-2.6ZM411.77,248.88l1.76-.92-2.61-5.77-2.62,1.49Z" transform="translate(-172.77 -70.73)"/><path d="M650.56,464.82a12.67,12.67,0,0,1-13.46,12.83c-7.61-.24-13.56-5.45-13.56-11.89,0-7.55,6.23-13.52,14.18-13.58A13,13,0,0,1,650.56,464.82Z" transform="translate(-172.77 -70.73)"/></svg>