<svg id="8b936fd5-ff34-49f3-bac5-65686dba173a" data-name="Layer 1" xmlns="http://www.w3.org/2000/svg" viewBox="0 0 163.66 140.54"><title>whoareyou</title><path d="M423.76,494l13.3-10.9v49.06L447.7,541V494L461,483.06v49.06L471.63,541v-47.2l13.3-10.91v47.34L461,550.2l-13.16-9-10.77,9-13.3-11Z" transform="translate(-421.02 -456.46)" style="fill:#231f20"/><path d="M497.55,467.5l13.3-11V540l-13.3,10.91Zm24.07,16.22,13.3,9V540l-13.3,10.91V501.8l-10.77-9Z" transform="translate(-421.02 -456.46)" style="fill:#231f20"/><path d="M546.88,503.93l13.29-11.17v39.49L571,541.16V501.8l-10.78-9,10.78-9,13.29,11v35.37l-23.93,20.21h-.14l-13.29-11Z" transform="translate(-421.02 -456.46)" style="fill:#231f20"/><path d="M421,561.07l7-5.9,5.76-5,7.2,5.62v22l4,3.38-5.18,5-5.83-4.89-5.69,5-7.2-6ZM433.76,581v-21l-5.54-4.68v21Z" transform="translate(-421.02 -456.46)" style="fill:#231f20"/><path d="M453.2,552.14l3.46,3,5.76-4.9,5.54,4.54-5.9,5-4.46-3.82-1,.93v23.84l-7.2,5.9V561.07L446,558.26Z" transform="translate(-421.02 -456.46)" style="fill:#231f20"/><path d="M467.6,559.78l7.2-6,4.11-3.53,8.85,7.27-13,10.95v6.19l6.63,5.54,4.39-3.81,1.15,1.08-4.39,3.74-5.76,5-9.22-7.63Zm7.2,6.69,5.91-5-5.91-5Z" transform="translate(-421.02 -456.46)" style="fill:#231f20"/><path d="M510.3,550.2l4.17,3.67v22.47l5.69,4.82V555.89l7.2-6V586.2l-7.2,5.91v-10.8l-5.69,5-7.2-6v-22L504,555.53Zm4.61,37.59,5.25,4.32-6,4.89L509,592.76Z" transform="translate(-421.02 -456.46)" style="fill:#231f20"/><path d="M533.84,561.14l7.2-6v21.38l5.84,4.83V560L541,555.1l5.84-4.9,7.2,6v19.15l-13,10.94H541l-7.2-6Z" transform="translate(-421.02 -456.46)" style="fill:#231f20"/><path d="M563.72,550.42l4.25,3.67v22.25l5.54,4.68V555.89l7.2-6v28l4,3.38-5.18,5-5.83-4.89-5.69,5-7.2-6V558.12l-3.1-2.59Z" transform="translate(-421.02 -456.46)" style="fill:#231f20"/></svg>