<svg id="7e0ae4c7-ff33-4a82-886e-c13638f0f8a1" data-name="Layer 1" xmlns="http://www.w3.org/2000/svg" viewBox="0 0 207.9 137.99"><title>whatdoyouoffer</title><path d="M423.76,494l13.3-10.9v49.06L447.7,541V494L461,483.06v49.06L471.63,541v-47.2l13.3-10.91v47.34L461,550.2l-13.16-9-10.77,9-13.3-11Z" transform="translate(-419.15 -456.46)" style="fill:#231f20"/><path d="M497.55,467.5l13.3-11V540l-13.3,10.91Zm24.07,16.22,13.3,9V540l-13.3,10.91V501.8l-10.77-9Z" transform="translate(-419.15 -456.46)" style="fill:#231f20"/><path d="M546.88,503.8l12.9-10.91,10.63-9.17,13.3,10.37v40.69L591,541l-9.57,9.17-10.77-9-10.51,9.18-13.29-11Zm23.53,36.83V501.94l-10.24-8.65V532Z" transform="translate(-419.15 -456.46)" style="fill:#231f20"/><path d="M599.66,486.38,613,475.21v8.51h14.1l-14,12H613V532l10.64,9L613,550.34l-13.3-11V495.69h-11.3Z" transform="translate(-419.15 -456.46)" style="fill:#231f20"/><path d="M435.43,563.27v15.62l-8.8,7.37-1.15-.94-5.5-4.56V567.07l5.5-4.62-6.33-5.28,4.51-3.8Zm-5.5,2.92-4.45-3.74v15.39l4.45,3.69Z" transform="translate(-419.15 -456.46)" style="fill:#231f20"/><path d="M440.38,567.07l5.5-4.62v16.33l4.46,3.68V566.19l-4.46-3.74,4.46-3.74,5.5,4.56V577.9l-9.9,8.36h-.06l-5.5-4.57Z" transform="translate(-419.15 -456.46)" style="fill:#231f20"/><path d="M474.7,558.71l3.19,2.8v17.16l4.35,3.68v-19.3l5.49-4.62V586.2l-5.49,4.51v-8.25l-4.35,3.8-5.5-4.57V564.87l-2.53-2.09Zm3.52,28.7,4,3.3-4.57,3.74-4-3.24Z" transform="translate(-419.15 -456.46)" style="fill:#231f20"/><path d="M492.69,567.07l5.5-4.62v16.33l4.45,3.68V566.19l-4.45-3.74,4.45-3.74,5.5,4.56V577.9l-9.9,8.36h-.05l-5.5-4.57Z" transform="translate(-419.15 -456.46)" style="fill:#231f20"/><path d="M515.51,558.87l3.24,2.81v17l4.24,3.57V563.05l5.5-4.62v21.39l3,2.59-4,3.79-4.45-3.74-4.35,3.8-5.49-4.57V564.76l-2.37-2Z" transform="translate(-419.15 -456.46)" style="fill:#231f20"/><path d="M545.54,567.07l5.5-4.62v16.33l4.45,3.68V566.19L551,562.45l4.45-3.74,5.5,4.56V577.9l-9.9,8.36H551l-5.5-4.57Z" transform="translate(-419.15 -456.46)" style="fill:#231f20"/><path d="M567,559.59V556l5.34-4.51,4.4-3.79,4.07,3.35-4.51,3.8-3.8-3.19v7h4.57l-4.57,3.79V582l-5.5,4.56v-23l-4.67,0Z" transform="translate(-419.15 -456.46)" style="fill:#231f20"/><path d="M580,559.59V556l5.33-4.51,4.4-3.79,4.07,3.35-4.51,3.8-3.8-3.19v7h4.57l-4.57,3.79V582L580,586.53v-23l-4.68,0Z" transform="translate(-419.15 -456.46)" style="fill:#231f20"/><path d="M591.08,566l5.5-4.62,3.13-2.69,6.77,5.55-9.9,8.36v4.73l5.06,4.23,3.35-2.91.88.82-3.35,2.86-4.4,3.85-7-5.83Zm5.5,5.11,4.51-3.79-4.51-3.79Z" transform="translate(-419.15 -456.46)" style="fill:#231f20"/><path d="M613.63,560.19l2.64,2.26,4.4-3.74,4.23,3.46-4.51,3.8L617,563.05l-.77.72V582l-5.49,4.51V567l-2.59-2.14Z" transform="translate(-419.15 -456.46)" style="fill:#231f20"/></svg>