<svg id="bae52a68-0392-45d6-b184-c00e6ec163d9" data-name="Layer 1" xmlns="http://www.w3.org/2000/svg" viewBox="0 0 167.27 136.19"><title>howdoihireyou</title><path d="M424.43,467.5l13.29-11V540l-13.29,10.91Zm24.06,16.22,13.3,9V540l-13.3,10.91V501.8l-10.77-9Z" transform="translate(-418.85 -456.46)" style="fill:#231f20"/><path d="M473.75,503.93l13.3-11.17v39.49l10.77,8.91V501.8l-10.77-9,10.77-9,13.3,11v35.37l-23.94,20.21h-.13l-13.3-11Z" transform="translate(-418.85 -456.46)" style="fill:#231f20"/><path d="M523.08,494l13.3-10.9v49.06L547,541V494l13.3-10.9v49.06L571,541v-47.2l13.29-10.91v47.34L560.31,550.2l-13.16-9-10.77,9-13.3-11Z" transform="translate(-418.85 -456.46)" style="fill:#231f20"/><path d="M431.58,568.27v12.21l-6.88,5.77-.9-.74L419.5,582V571.24l4.3-3.61-4.95-4.13,3.53-3Zm-4.3,2.28-3.48-2.92v12l3.48,2.88Z" transform="translate(-418.85 -456.46)" style="fill:#231f20"/><path d="M435.45,571.24l4.3-3.61V580.4l3.48,2.88V570.55l-3.48-2.92,3.48-2.93,4.3,3.57v11.44l-7.74,6.54h0l-4.3-3.57Z" transform="translate(-418.85 -456.46)" style="fill:#231f20"/><path d="M462.71,564.57l2.58,2.2v14.14l2.37,2-4,3.31L461.12,584,461,570.16l-2.49-2.06Zm.09-8.47,3.78,3.1-3.82,3.31-3.83-3.14Z" transform="translate(-418.85 -456.46)" style="fill:#231f20"/><path d="M478.84,559.46l4.3-3.57v27l-4.3,3.53Zm7.78,5.24,4.3,2.93v15.26l-4.3,3.53V570.55l-3.48-2.92Z" transform="translate(-418.85 -456.46)" style="fill:#231f20"/><path d="M497.5,564.57l2.58,2.2v14.14l2.36,2-3.95,3.31L495.91,584l-.13-13.85-2.5-2.06Zm.08-8.47,3.79,3.1-3.83,3.31-3.83-3.14Z" transform="translate(-418.85 -456.46)" style="fill:#231f20"/><path d="M507.6,565.86l2.07,1.77,3.44-2.93,3.31,2.71-3.53,3-2.66-2.28-.61.56v14.23l-4.3,3.53V571.2l-2-1.68Z" transform="translate(-418.85 -456.46)" style="fill:#231f20"/><path d="M516.2,570.42l4.3-3.61L523,564.7l5.29,4.35-7.74,6.53v3.7l4,3.31,2.62-2.28.69.65-2.62,2.23-3.44,3-5.51-4.56Zm4.3,4,3.53-3-3.53-3Z" transform="translate(-418.85 -456.46)" style="fill:#231f20"/><path d="M541.7,564.7l2.5,2.2v13.41l3.39,2.88V568.1l4.3-3.61V586.2l-4.3,3.53v-6.45l-3.39,3-4.3-3.57V569.52l-2-1.64Zm2.75,22.45,3.14,2.58L544,592.65l-3.09-2.53Z" transform="translate(-418.85 -456.46)" style="fill:#231f20"/><path d="M555.76,571.24l4.3-3.61V580.4l3.48,2.88V570.55l-3.48-2.92,3.48-2.93,4.3,3.57v11.44l-7.74,6.54h0l-4.3-3.57Z" transform="translate(-418.85 -456.46)" style="fill:#231f20"/><path d="M573.61,564.83l2.53,2.2v13.28l3.31,2.8v-15l4.3-3.61v16.72l2.37,2-3.1,3-3.48-2.92-3.4,3-4.3-3.57V569.43L570,567.88Z" transform="translate(-418.85 -456.46)" style="fill:#231f20"/></svg>