<svg id="e4d8dbd9-71ef-4d27-a067-c659488e04a9" data-name="Layer 1" xmlns="http://www.w3.org/2000/svg" viewBox="0 0 219.35 138.11"><title>showmeexamples</title><path d="M434,521.22l-8.91-7.45-1.46-1.2V499.68l19-16,17.69,14.36,3.72-3.19,2.26,1.73-16.62,14.49,11.57,9.44v12.9l-9.58,7.84-10.63,8.91L422.43,535l-2.52,2.27-2.13-2Zm14.89,17.55V527.2l-9-7.31L432.8,526Zm-5.45-25.93,6.25-5.45L436,496.09l-.13,10.37Z" transform="translate(-417.78 -456.46)" style="fill:#231f20"/><path d="M473,467.5l13.29-11V540L473,550.87ZM497,483.72l13.3,9V540L497,550.87V501.8l-10.77-9Z" transform="translate(-417.78 -456.46)" style="fill:#231f20"/><path d="M522.28,503.93l13.3-11.17v39.49l10.77,8.91V501.8l-10.77-9,10.77-9,13.3,11v35.37l-23.94,20.21h-.13l-13.3-11Z" transform="translate(-417.78 -456.46)" style="fill:#231f20"/><path d="M571.61,494l13.29-10.9v49.06L595.54,541V494l13.3-10.9v49.06L619.48,541v-47.2l13.29-10.91v47.34L608.84,550.2l-13.17-9-10.77,9-13.29-11Z" transform="translate(-417.78 -456.46)" style="fill:#231f20"/><path d="M423.72,559.9l3.35,2.92,4.48-3.62,5.18,3.68,4.38-3.68,5.4,4.48V582l-5.4,4.43V566.55l-4.32-3.62V582l-5.4,4.43V566.55l-4.32-3.62V582.1l-5.4,4.43V567.3l-3.35-2.81Z" transform="translate(-417.78 -456.46)" style="fill:#231f20"/><path d="M451.37,566.38l5.4-4.53,3.07-2.65,6.65,5.46-9.72,8.2v4.65l5,4.16,3.3-2.87.86.82-3.29,2.8-4.32,3.78-6.91-5.72Zm5.4,5,4.42-3.73L456.77,564Z" transform="translate(-417.78 -456.46)" style="fill:#231f20"/><path d="M480.53,566.38l5.4-4.53L489,559.2l6.65,5.46-9.72,8.2v4.65l5,4.16,3.3-2.87.86.82-3.29,2.8-4.32,3.78-6.91-5.72Zm5.4,5,4.42-3.73L485.93,564Z" transform="translate(-417.78 -456.46)" style="fill:#231f20"/><path d="M501.42,559.2l3.51,2.92v5l4.32,3.34V565.3l-2.54-2.16,4.16-3.94,3.51,2.92v4.7l-4.69,3.94.37.32,3.89,3.13v5.89l2.54,2.16-4.16,3.94-3.51-2.81v-6.91l-3.89-3V580l2.54,2.16L503,586.2l-3.24-3v-5.72l4.92-4.16-4.92-3.62V565.3l-2.53-2.16Z" transform="translate(-417.78 -456.46)" style="fill:#231f20"/><path d="M518.92,567.36l5.24-4.43,4.32-3.73,5.4,4.21v16.53l3,2.54L533,586.2l-4.38-3.67-4.26,3.73-5.4-4.49Zm9.56,14.95V566.6l-4.16-3.51V578.8Z" transform="translate(-417.78 -456.46)" style="fill:#231f20"/><path d="M543.06,559.9l3.35,2.92,4.48-3.62,5.18,3.68,4.38-3.68,5.4,4.48V582l-5.4,4.43V566.55l-4.32-3.62V582l-5.4,4.43V566.55l-4.32-3.62V582.1L541,586.53V567.3l-3.34-2.81Z" transform="translate(-417.78 -456.46)" style="fill:#231f20"/><path d="M570.71,567.14l9.45-7.94.54.43,5.39,4.49v16.57l-5.39,4.54h-4.81v4.91l-5.18,4.43ZM579.18,580l1.52-1.29V567.09l-3.35-2.87-1.46,1.3V580Z" transform="translate(-417.78 -456.46)" style="fill:#231f20"/><path d="M591.22,552.51l5.41-4.54v31.32l3.78,3.19-4.33,3.78-1.13-.92-3.73-2.76Z" transform="translate(-417.78 -456.46)" style="fill:#231f20"/><path d="M602.56,566.38l5.4-4.53L611,559.2l6.64,5.46-9.72,8.2v4.65l5,4.16,3.3-2.87.86.82-3.29,2.8-4.32,3.78-6.92-5.72Zm5.4,5,4.43-3.73L608,564Z" transform="translate(-417.78 -456.46)" style="fill:#231f20"/><path d="M624,574.43l-3.62-3-.59-.49v-5.24l7.72-6.48L634.7,565l1.51-1.29.92.7-6.75,5.89,4.69,3.83v5.24l-3.89,3.18-4.31,3.62-7.57-6.15-1,.91-.86-.8Zm6,7.13v-4.7l-3.67-3-2.86,2.49ZM627.84,571l2.54-2.22-5.57-4.59,0,4.22Z" transform="translate(-417.78 -456.46)" style="fill:#231f20"/></svg>