<?xml version="1.0" encoding="utf-8"?>
<!-- Generator: Adobe Illustrator 22.1.0, SVG Export Plug-In . SVG Version: 6.00 Build 0)  -->
<svg version="1.1" id="Layer_2_1_" xmlns="http://www.w3.org/2000/svg" xmlns:xlink="http://www.w3.org/1999/xlink" x="0px" y="0px"
	 viewBox="0 0 409.6 409.6" style="enable-background:new 0 0 409.6 409.6;" xml:space="preserve">
<style type="text/css">
	.st0{fill:none;stroke:#5B92E2;stroke-width:35.4126;stroke-miterlimit:10;}
</style>
<path class="st0" d="M334.8,78.2c59.1,62.7,61.6,156.3,25.4,220.7c-30.7,54.8-81.8,75.1-92.9,79.2c-8.4,3.1-75.7,27-143.7-8.9
	C56.9,334,15.2,254.8,27.9,175.2c9.9-62.4,52.5-121.5,118.3-144.5C214.5,6.8,288.3,28.8,334.8,78.2z"/>
<path class="st0" d="M124.7,110c27.7-23.5,64.5,8.4,126.3,0c5.8-0.8,18.5-2.8,30,4c10,5.9,15,16.1,19,28c18,53.6,2.6,104.8,1,110
	c-6,19.1-12.8,39.7-31,48c-8.6,3.9-15.9,3.4-25,3c-65.9-2.5-76.5,10.8-100-1c-19.8-10-29.2-27.9-36-41c-26.1-50-6.9-102.9-1-119
	C114.2,124.8,117.4,116.2,124.7,110z"/>
<path class="st0" d="M249,204c0.1,1.2,1.4,23.6-16,37c-14.8,11.4-32.2,7.8-41,6c-8.9-1.8-23.7-4.9-31.2-17.7
	c-10.2-17.4,1.5-38.2,3.2-41.3c2-3.6,8.6-15,23-21c3.9-1.6,17.6-6.7,33-1C235.1,171.6,247.7,186,249,204z"/>
<path class="st0" d="M253,139c3.8,4.8,7.7,9.7,11.5,14.5"/>
</svg>
