<?xml version="1.0" encoding="utf-8"?>
<!-- Generator: Adobe Illustrator 22.1.0, SVG Export Plug-In . SVG Version: 6.00 Build 0)  -->
<svg version="1.1" id="Layer_2_1_" xmlns="http://www.w3.org/2000/svg" xmlns:xlink="http://www.w3.org/1999/xlink" x="0px" y="0px"
	 viewBox="0 0 512 512" style="enable-background:new 0 0 512 512;" xml:space="preserve">
<style type="text/css">
	.st0{fill:none;stroke:#5B92E2;stroke-width:36;stroke-linecap:round;stroke-linejoin:round;stroke-miterlimit:10;}
</style>
<path class="st0" d="M377,301c-41.6,76.2-73.4,87.4-131.3,92.7C149.3,402.5,73,269.2,106.3,179.1C129.5,116.3,283.5,75.4,324,115
	C371,161,292.7,276.6,377,301c4.8,1.4,63.7,7.5,81.7-7.2C497.9,261.7,476.2,130.7,396,65C326.7,8.3,225.6,10.1,153,48
	C56.7,98.3,2,216.9,34,325c22.3,75.3,85.6,141.6,172,160c122.7,26.1,209.8-61.9,214.9-67.1"/>
</svg>
