<svg id="Layer_1" data-name="Layer 1" xmlns="http://www.w3.org/2000/svg" viewBox="0 0 375.94 740.86"><defs><style>.cls-1{fill:#39a9e0;}</style></defs><title>left</title><path class="cls-1" d="M651.63,357c-2.28,5.06-3.9,9.85-7.49,14.22A40,40,0,0,1,639,376.4c-1.53,1.29-3.34,2.23-4.62,3.71-2.48-.1-4.71,1.72-6.4,3.58-3.66,4-7.57,9.27-13.61,9.29-5.53,0-9.88-4.49-13.73-7.89a45,45,0,0,0-11.71-7.81l-.72-.3a1,1,0,0,0-.47-.19,38,38,0,0,0-23.94-1.64c-.54-3.33-3.72-7.28-7.28-6.83-1.05.13-1.69,1.54-.59,2.16,2.23,1.25,4.44,1.82,5.21,4.63a5,5,0,0,1-3.78,6.25c-1.16.26-.93,2.24.28,2.1a7.16,7.16,0,0,0,6.17-6.16c7.78-1.29,15.47-1,22.75,1.95A10.92,10.92,0,0,1,583.1,392c-.85.67.25,2.1,1.16,1.5a12.65,12.65,0,0,0,5.41-12.83l.1.05c7,3.68,11.7,10.79,19,13.95,6.61,2.88,12.77,0,17.56-4.78,1.43-1.42,2.61-3.34,4.14-4.62,1.24-1,4.89-1.44,6.27-.36.94.73,1.47,3.42,1.76,4.48a29.35,29.35,0,0,1-.59,16.53c-.56,1.81,2.21,2.54,2.8.78a31,31,0,0,0,1.26-15.23c-.56-3.33-1.64-8.12-4.66-10.3,3.85-1.76,7.47-6.08,9.7-8.91,3.26-4.15,6.38-9.36,7.07-14.68C654.21,356.36,652.14,355.83,651.63,357Z" transform="translate(-314.66 -133.57)"/><path class="cls-1" d="M676.34,606.59c5.86-2.67,8.23-12.84,9.25-18.42,2.33-12.62,2-25.56,1.55-38.34-.19-5.64-.46-11.31-2.62-16.61-1-2.44-1.47-3.71-.91-6.42.3-1.42,1-2.83,1.43-4.23a59.52,59.52,0,0,0,1.92-8.86c1.57-11.28.18-23.94-5.31-34.06-.36-.66-.75-1.29-1.17-1.91,8.12-5.33,8.92-16.49,4.36-24.49a25.7,25.7,0,0,0-1.63-2.47c11.53-12.58,9-31.81-3.63-42.28a15.68,15.68,0,0,0,9-11.72c1.25-7-2.09-13.77-6.51-19a1.53,1.53,0,0,0-.46-.37,26.51,26.51,0,0,0,.46-29,28,28,0,0,0-14.09-11,28.25,28.25,0,0,0,5.77-1.28c11.13-3.8,12.22-15.9,10.63-26-.84-5.33-2.16-11.35-6.1-15.34s-10.37-5-15.77-5.34-12.18,1.27-14.54,6.93a8,8,0,0,0-.56,4C642.06,297,636,294,629.73,293c-7.48-1.17-15.11.43-22.06,3.23s-15.9,7.84-19.59,14.91c-10.12-8-24.86.26-23.28,13-18.36-.37-34.34,16-30.89,34.64a29.06,29.06,0,0,0-9.43,2.16c-11.29,4.95-17.1,19.69-12,30.94a.41.41,0,0,0,0,.09c-17.18,8.24-22,31.55-9.43,46.24-4.43,2.42-7.52,7.3-9.16,12.34-1.38,4.21-2.61,9.23-1.69,13.67.4,1.92,1.35,6.38,3.41,7.72a23.11,23.11,0,0,0-9.08,15.51c-1.41,10,2,20.84,12,24.3-2.55,3.16-3.43,6.84-4,10.85-.67,4.52-1.32,9.16-.7,13.73a17.65,17.65,0,0,0,13.7,15.22c.4.1.79.17,1.18.25-7,9.71-3.51,22.61,7.18,27.86-3.86,10-5.8,24.6.84,33.72,3,4.17,9,6,13.33,4.18-1.08,4.84-1.12,10,1.86,14.06a11.21,11.21,0,0,0,4.53,3.62,14,14,0,0,0,12.11,17.16c-2.75,10.79,2.7,24.28,11.78,30.48a16,16,0,0,0,21.85-3.39c1.15,9,6.16,17.46,14.46,21.54a24.13,24.13,0,0,0,25.59-2.87A25.86,25.86,0,0,0,631,715.4c4.3,3.68,10.46,5.31,15.09,1.89,1.48,5.49,6.84,9.39,11.9,11.57,7,3,15.37,3.37,21.74-1.29,13.81-10.09,10.48-32.06,2.17-44.55a1.61,1.61,0,0,0-.55-.5c5.58-8,7.44-18.15,8-27.77.72-12.42.22-26.43-4.27-38.18C683.12,611.54,680.1,608.4,676.34,606.59ZM686.29,656c-.68,9.47-2.8,19.63-9.1,27.07-6.73,7.93-17,11-26.63,13.9-1.52.45-1.32,3.06.4,2.9A11,11,0,0,1,662.88,708a1.48,1.48,0,0,0,2.85-.79,14.11,14.11,0,0,0-8.2-9.27c8.26-2.72,16.3-6.3,22-13.08,6.89,10.61,10.45,28.49.65,38.45-9.26,9.42-27.75,4.21-32.47-7.63.54-1.32-1.23-2.84-2.41-1.62-4.74,4.92-11.39.79-14.92-3.44a23.67,23.67,0,0,1-5.29-15.72,1.5,1.5,0,0,0-2.53-1A21.05,21.05,0,0,1,597.14,698c-8.49-4.62-12.66-14.52-12.21-23.86.08-1.72-2.39-1.91-2.89-.39-3.36,10.17-15.39,11.66-22.6,4.64-6.79-6.6-10.58-17.71-7.6-26.85a1.45,1.45,0,0,0-1.39-1.82,12.1,12.1,0,0,1-12.18-13.78,16.41,16.41,0,0,0,12.29-2,30.19,30.19,0,0,0,6.75-5.53c-2.4,9.2-.37,18.38,7.55,24.62a1.05,1.05,0,0,0,1.49-1.49c-3.52-4-6.57-7.37-7-12.94a29.79,29.79,0,0,1,1.83-12.72c3.51-9.19,11.27-12.8,19.93-15.8,1.33-.46,1.24-2.86-.36-2.65a28.47,28.47,0,0,0-15.29,7.26,55,55,0,0,0,2.89-25.94,1.28,1.28,0,0,0-1.49-1,1,1,0,0,1,0-.17,37.26,37.26,0,0,0,24.8-10.65c2.59,14.85,22.18,15.66,30.68,25.67,4.84,5.7,7.7,12.38,14.2,16.55,5.94,3.82,13.53,6.09,20.47,7.08a1.53,1.53,0,0,0,.75-.08c-2.22,3.5-2.06,8.28-1.25,12.16.27,1.29,2.21,1,2.24-.3.06-3.25-.42-6.87,1.22-9.84,2.11-3.82,6.67-3.7,10.45-3.37,1.65.14,2-2.57.39-2.91l-1.13-.23a1.2,1.2,0,0,0-.72.09c-3.73-.17-7.65.31-10.24,3.13a1.24,1.24,0,0,0-1-1.31c-6.74-2.06-13.65-3-19.71-7S629.31,606.3,624.87,601c-8.7-10.45-27.91-10.71-31.32-25.55a.83.83,0,0,0-.13-.3c7.16-7.63,11.86-17.79,15-27.75a8.67,8.67,0,0,0,2.8.85c3.58.45,8.32-1.47,9.41-5.16a1.24,1.24,0,0,0-2.05-1.19c-2.31,2-4.12,4.12-7.58,3.46a8,8,0,0,1-5.6-4.83c-.51-1.09-2.13-.3-1.87.79a9.13,9.13,0,0,0,2.45,4.34,1.48,1.48,0,0,0-.24.47c-4.68,15.23-13.18,31.35-29.3,36.74-8.47,2.84-17.66,1.93-26.21-.07-8.12-1.9-16.38-4.58-22.13-10.94-.78-.86-2,.39-1.26,1.26,5.52,6.78,13.62,10.17,21.9,12.3a64.93,64.93,0,0,0,15.9,2.2c0,.15.09.29.14.44a5.11,5.11,0,0,1,.17,1.74.83.83,0,0,0,.72.85c1.26,13-2.37,26.57-11.32,36.32-4.63,5-13.9,10.11-19.62,3.45-4.19-4.87-2-12.52,0-17.84.65-1.79-2.19-2.55-2.85-.78-1.35,3.68-6.23,4.51-9.45,2.86-3.58-1.84-5.27-6.08-6.07-9.78-1.86-8.52-.39-17.49,2.75-25.51a1.44,1.44,0,0,0-1-1.74c-10.47-4-13.56-16.57-7.15-25.46A22.2,22.2,0,0,0,527.49,547c5.61-1.11,10.35-1.62,15.9.33,1.54.55,2.22-1.42,1.43-2.45-5.18-6.68-3.79-14.17.86-20.53a.76.76,0,0,0,.15-.37c7.44-2.88,10.65-11.93,11.55-20a6.2,6.2,0,0,0,2.27,0,12.28,12.28,0,0,0,.44,12c2.71,4.54,7.71,6.76,12.76,7.48-3.09,4.47-4.79,10-2.57,15.3,1.54,3.63,7.54,9.72,12,7a1.54,1.54,0,0,0,.68-1.67c0-.1,0-.21,0-.31a1.29,1.29,0,0,0-1.55-.89l-.17,0a1.06,1.06,0,0,0-.51.31c-3.14,1.51-7.39-4.48-8-6.74-1.39-4.79,1-9.66,4-13.24a1.47,1.47,0,0,0-1-2.47c-4.4-.14-8.85-1.39-12-4.69a10.28,10.28,0,0,1-.76-13.28c4.81-2.26,10.09-7,12.44-8.55a26.74,26.74,0,0,1,17.14-4.55c5.37.29,10.68.88,15.88-.87.43-.14.86-.3,1.28-.48,3,3.34,6.32,5.77,8.51,9.87a27.85,27.85,0,0,1,3.25,13.56,1.5,1.5,0,0,0,1.48,1.48c6.42.48,11.17,6.39,9.38,12.78-1.86,6.64-9.12,9-15.06,6.32a.89.89,0,0,0-.89,1.53,12.55,12.55,0,0,0,18.68-7.1,12.36,12.36,0,0,0-2.38-11.53.72.72,0,0,0,.26-.6c-.21-4.61,1.89-10.93,7.88-9.86,2.72.49,5.25,2.45,7.86,3.37,4.78,1.68,10.24,2,14.89-.26,3.85-1.87,7.06-5.41,7.7-9.74.8-5.41-3.59-8.4-7.25-11.6-1.39-1.23-3.42.75-2,2.05,2.72,2.56,6.63,5.18,6.35,9.49-.2,3-3.27,5.69-5.71,7-6.25,3.33-12.5.42-18.36-2.08-7.82-3.34-14.37,2.79-13.19,10.62a14.14,14.14,0,0,0-6.65-3.15c-.32-8.4-4.31-19.17-12-23.43,13.39-7.38,22.51-27.49,13.25-40.65a15,15,0,0,0,7-1.45c7.85-3.79,14-14.18,12.49-23a9,9,0,0,0,10.53-11.26c-.48-1.81-3.09-1-2.76.76,1,5.61-4,9.72-9.19,6.9-1-.56-2.66.39-2.17,1.67,2.94,7.71-2.33,17.86-9.22,21.88-6.56,3.83-15,1.13-18.92-5.12a1,1,0,0,0-1.72,1,16.33,16.33,0,0,0,10.5,8.18,1.22,1.22,0,0,0,0,.27,10,10,0,0,1-7.46,11.12,1.48,1.48,0,0,0,.78,2.86,13,13,0,0,0,9.34-9.31c3.06,7,1,15.7-2.57,22.12-4.18,7.47-11.44,13.52-20.24,14.09-8.1.53-15.65-1.69-23.36,1.91-2.44,1.15-19.48,14.12-21.19,11.76a1.5,1.5,0,0,0-2.76.75c-.52,8.78-3.78,20.87-14.85,20.35a1.49,1.49,0,0,0-1.42,1.08c-3.35,13.26-12.67,28.54-28.52,26.1-7.7-1.19-12.77-6.74-13.43-14.5-.58-6.79,0-16.37,4.25-22a1.11,1.11,0,0,0,.13-.27c12.62,2.82,26-4.56,33.6-14.29,1.11-1.43-.89-3.45-2-2-7.45,9.58-22.22,18.09-34.47,12.49-7-3.18-9.2-11-8.79-18.12.45-7.76,4-14.11,10.73-18.15,12.41-7.46,26.68-8.8,40.07-13.42,5.41-1.86,10.93-5.24,14.26-9.9,3.74,13.39,25.16,18.35,34.27,7.93,1.87,8.5,11,13.28,19.58,9.58,1.71-.74.23-3.23-1.47-2.51-8,3.41-16.09-2.62-15.66-11.15a1.39,1.39,0,0,0-2.58-.7c-4.25,8.83-15.15,9.07-23.06,5.33-5.55-2.62-8.73-7.33-8.8-12.81a15.48,15.48,0,0,0,.86-5.26c.06-.17.1-.34.16-.51,5.17-14.19,23.07-17.62,35.07-24.28a9.77,9.77,0,0,0,.89,2.15c1.9,3.38,6.29,5.95,10.13,4.45,1.28-.5,1.28-2.82-.35-2.64-8.73,1-9.52-8.15-6.77-14.31a.94.94,0,0,0-1.63-.95,15.13,15.13,0,0,0-2.65,9.3c-4.81,1.58-9.41,3.8-14,5.85a74,74,0,0,0-13.53,7.2,29.18,29.18,0,0,0-8.07,8.71c-3.26-11-15.44-15.79-26-18.27,3-2.44,6.21-8.43,3.77-12.1a1.06,1.06,0,0,0-1.92.25c-.38,1.43-.07,2.84-.36,4.29a9.82,9.82,0,0,1-2.75,5.13c-3.16,3-7.64,3.23-11.51,1.65-1-.4-1.55,1.15-.7,1.65a12,12,0,0,0,11.11.61c6.86,2.15,14.36,4.16,19.82,9.05,3.81,3.4,6.32,8.06,6.36,12.82a19.24,19.24,0,0,0-.71,4.43,13.8,13.8,0,0,1-1.63,3.29c-4.31,6.43-12,9-19.19,10.71a187.87,187.87,0,0,0-21.09,5.9,67,67,0,0,0-13.91,6.61,1.13,1.13,0,0,0-.92-.7c-1.57-1.75-2.25-6.92-2.23-8.76a33.16,33.16,0,0,1,1.92-9.63c2.19-6.68,6.93-12.45,14.38-13,.82-.06,1.14-1.41.21-1.54a13.07,13.07,0,0,0-5.63.41,1.06,1.06,0,0,0-.18-.27c-13-15.41-5.92-39.68,14-44.38a28.31,28.31,0,0,1,13.57.09c3.51.91,7.39,4.42,11.09,4,1.39-.16,2.36-1,3.54-1.63a13.86,13.86,0,0,1,6.81-1.93c5-.05,9.16,2.31,12.4,6,.61.7,1.62-.19,1.23-.95a14.65,14.65,0,0,0-9.63-7.21c-4.58-1.12-8,0-12.17,1.75-4.67,1.93-11.08-2.7-16.16-3.39A31.63,31.63,0,0,0,514.9,391l-.17.07s0,0,0-.07A22.26,22.26,0,0,1,517.38,370c5.87-8.25,15.29-8.88,24.64-8.92,7.23,0,14.61-.51,21.11-4,4.7-2.52,10.8-8,8.84-13.94-.15-.46-.91-.41-.88.12.3,5-4.67,9.28-8.67,11.46a33.7,33.7,0,0,1-13,3.61c-4.46.41-9,.13-13.54.33-1.08-17.84,12.1-33.12,30.74-31.5a1.48,1.48,0,0,0,1.42-1.86A11.46,11.46,0,0,1,586.91,314a14,14,0,0,0,.45,8.93.64.64,0,0,0,1.23-.34,16.08,16.08,0,0,1,.63-8.27,1.47,1.47,0,0,0,.53-1.32c3.76-8.24,14.19-13.28,22.63-15.9,6.11-1.9,12.62-2.69,18.91-1.21,6.08,1.44,11.19,4.79,16.61,7.71a1.28,1.28,0,0,0,.71.16,6.82,6.82,0,0,0,4.58,3.13.78.78,0,0,0,.42-1.51c-6.2-2-4.54-9.37,0-12.07,4.33-2.58,9.9-1.77,14.58-.8,8.49,1.75,11.78,7.38,13.36,15.41,1.21,6.21,2.09,13.6-.92,19.43-3.59,6.94-11.79,7.92-18.8,7.42-7.22-.51-14.19-3-18.15-9.39-2.77-4.47-4.47-9.51-9.63-11.76-10.84-4.71-20.84,4.67-23.44,14.62a1,1,0,0,0,1.91.52c2.6-7,7.77-14,16.07-13.79,8.73.24,10.06,8.34,14.48,14a20.68,20.68,0,0,0,7.88,5.95,14.21,14.21,0,0,0-8.81,4.4c-5.14-2.65-11.19-4-16.74-1.75a13.28,13.28,0,0,0-8.75,12.11c0,.82,1.33,1,1.45.2,1.76-11.83,15.29-12.46,23.68-7.6a1.44,1.44,0,0,0,1.9-.5c4.46-6,13.42-4.61,19.67-2.94,7,1.89,13.26,5.61,16.94,12.09,7.28,12.84,1.05,28.53-12.39,33.91-1.71.69-1,3.47.77,2.81a26.57,26.57,0,0,0,11.27-7.93l.1.14c3.59,4.25,6.4,9.66,5.83,15.39A12.53,12.53,0,0,1,676,406.52c-1.34.26-1.32,2.05-.35,2.7,13.66,9.21,15.45,26.95,6.17,39.82a33.93,33.93,0,0,0-8.13-6.74c-1.47-.88-17.17-8.07-17.59-6.87a1.14,1.14,0,0,0-1.9-1.1c-2.22,2.57,1.36,3.89,3.36,4.5,5.88,1.79,11.8,3.88,16.86,7.46,9.61,6.8,15.15,21,4.69,29.63-6.11-7.37-16.57-11.31-25.92-13a1.38,1.38,0,0,0-1.49-.95c-.78.12-1.56.28-2.34.46a1.44,1.44,0,0,0,0,2.76c6.79,1.43,13.43,3.17,19.61,6.43s10,8,12.34,14.59A57.33,57.33,0,0,1,683,518.93c-.72,2.93-2.12,5.76-2.61,8.72-.36,2.13.29,3.85,1.06,5.8A37.9,37.9,0,0,1,684,545.37c.44,6.8.53,13.67.48,20.48a125.27,125.27,0,0,1-1.73,21.54c-1,5.75-2.94,17.51-10.33,17.83a33.79,33.79,0,0,0-11.27-.42c-1.15.12-1.21,1.83,0,1.83,5.16,0,11-.08,15.43,2.88s6.07,8.39,7.25,13.27A109.22,109.22,0,0,1,686.29,656ZM540.58,543.47a24.58,24.58,0,0,0-9-.4,47.71,47.71,0,0,0,9.37-18.16,16.61,16.61,0,0,0,1.9-.15C538.05,529.78,537.65,537.37,540.58,543.47Z" transform="translate(-314.66 -133.57)"/><path class="cls-1" d="M662.92,527.63c-6.18-1.92-14.32.82-16.39,7.43-1.7,5.41-.74,13.1,2.31,18.23-5.12,1.15-10,3-12.27,8-5.24-.55-10.86,6.93-10.36,11.61a.82.82,0,0,0,1.64,0c.12-2.65,1.54-4.63,3.44-6.34,2.44-2.2,6.67-3.85,7.83.64a22.54,22.54,0,0,1,.36,6.14c-.05,1.39.13,3.88-.38,5.41a.84.84,0,0,0-.18.15l-.16.18a1.23,1.23,0,0,0,0,1.69l.2.25a1.3,1.3,0,0,0,1.54.2c2.34-1.22,1.79-7,1.79-9.12,0-3.42-.14-7.82-3.33-9.94a5.16,5.16,0,0,0-.64-.36c3-4.35,8.33-5.39,13.32-6.16,1.18-.19,1.24-1.68.63-2.41-3.27-4-3.61-9.87-3.27-14.84.5-7.38,7.45-8.8,13.56-8.15C664.11,530.41,664.3,528.05,662.92,527.63Z" transform="translate(-314.66 -133.57)"/><path class="cls-1" d="M672.86,536.75c-1.06-.85-2.8.21-2,1.55,1.16,1.94,2,3.46,1.39,5.75-.82,3-3.44,4.39-6.49,3.87-1.34-.22-2.56,1.35-1.42,2.43,7.87,7.52,5.81,19.17-3.3,24.55-1,.61-.12,2.05.92,1.58,10.22-4.63,12.55-17.15,6.55-25.69a8.15,8.15,0,0,0,6-4C676.3,543.63,675.74,539.06,672.86,536.75Z" transform="translate(-314.66 -133.57)"/><path class="cls-1" d="M639.49,647.5c-8.59-1.52-4-14.92-6.44-20.75a15.45,15.45,0,0,0-12.83-9.28c-1.89-.21-1.87,2.75,0,3a12.5,12.5,0,0,1,9.72,6.6c2.11,4,.91,8.7,1.22,13a13,13,0,0,0,3,7.74c-8.63.48-19.72,1.23-20.8,11.33-.88,8.19,5.57,12.31,12.52,14.39A17.63,17.63,0,0,0,619,678.3c-1.52,1.75-4.27,7.08,0,7.3.77,0,.9-1,.36-1.34-2.62-1.85,4.4-6.67,5.81-7.4a16.7,16.7,0,0,1,9.41-1.64c1.87.18,1.83-2.7,0-2.91-6.94-.81-20.87-3.75-18.11-13.94,2.46-9.06,15.7-7.22,22.64-8C640.6,650.24,641.27,647.82,639.49,647.5Z" transform="translate(-314.66 -133.57)"/><path class="cls-1" d="M481.45,598.29c-13.47-8.78-32.7-9.13-45.43,1-12.45,9.91-16.47,26.85-10.65,41.55,6.36,16.11,23.87,25.85,40.91,23.66a.7.7,0,0,0,.84.87c14.48-3.66,26.83-15.21,29.74-30.15C499.57,621.35,493.35,606.05,481.45,598.29ZM467.2,663.93a.37.37,0,0,0-.38-.3c-19.51,1.26-38.16-9.69-42.07-29.83C421,614.36,434.83,594.63,455,593.18s39,11.47,40.95,32.15C497.7,643.53,484.25,659.4,467.2,663.93Z" transform="translate(-314.66 -133.57)"/><path class="cls-1" d="M477.37,602.85a33.18,33.18,0,0,0-36.71-1.1c-13.06,8.19-14.46,23.64-9,37.08,5.14,12.73,18.55,23.46,32.76,20.51a.68.68,0,0,0,.48.22c13.59.38,23.49-12,25.68-24.47A33,33,0,0,0,477.37,602.85Zm-12.51,55.31a.67.67,0,0,0-.39.12c-15.82,1-28.66-8.64-33-24.11-2.51-9-2.46-19.41,4.25-26.63,5.37-5.78,13.3-9,21.1-9.4A31.72,31.72,0,0,1,488.78,622C492.55,637.4,482.82,658.67,464.86,658.16Z" transform="translate(-314.66 -133.57)"/><path class="cls-1" d="M464.34,651.11a.52.52,0,0,0-1-.26c-1,1.89-.77,4.62-.27,6.63.17.69,1.18.39,1.05-.29a12.76,12.76,0,0,1-.23-3.2C464,653,464.29,652.08,464.34,651.11Z" transform="translate(-314.66 -133.57)"/><path class="cls-1" d="M440.75,629.91a68.81,68.81,0,0,0-8.3,1.29c-.55.1-.43,1.06.14,1a68.17,68.17,0,0,0,8.3-1.28A.51.51,0,0,0,440.75,629.91Z" transform="translate(-314.66 -133.57)"/><path class="cls-1" d="M458.64,598.88c0-.4-.65-.7-.86-.23a12.57,12.57,0,0,0-.66,3.4c-.16,1.16-.34,2.31-.48,3.47-.07.55.86.67,1,.13.23-1.18.42-2.37.63-3.56A11.72,11.72,0,0,0,458.64,598.88Z" transform="translate(-314.66 -133.57)"/><path class="cls-1" d="M487.16,626.72a12,12,0,0,0-2.8.55,21.5,21.5,0,0,1-3.49.35.47.47,0,0,0,0,.94,19.18,19.18,0,0,0,3.55-.21,6.2,6.2,0,0,0,3-.93C487.76,627.18,487.48,626.74,487.16,626.72Z" transform="translate(-314.66 -133.57)"/><path class="cls-1" d="M461,627.07a1.9,1.9,0,0,0-1.85-1.58l-.15-.2c0-.28,0-.56,0-.83.39-2.64.67-5.28.81-8a.67.67,0,0,0-1.3-.18,40.52,40.52,0,0,0-.87,7.09c-.64-.89-1.28-1.77-1.9-2.67q-4.19-6.42-7.84-13.17c-.43-.79-1.6-.09-1.21.71a99.6,99.6,0,0,0,9.51,15.62c.48.72,1,1.44,1.45,2.15v0a1,1,0,0,0-.35.39.82.82,0,0,0-.08.4,1.51,1.51,0,0,0-.06.82,2,2,0,0,0,2.45,1.59A2.06,2.06,0,0,0,461,627.07Z" transform="translate(-314.66 -133.57)"/><path class="cls-1" d="M443.33,520q-5.08-7.86-10.19-15.72c-1.35-2.09-1.85-4.08-4.31-3.63-1.89.34-4.35,2.48-6,3.45L415,508.61c-5.2,3-10.81,5.7-15.55,9.39-.22.17,0,.59.28.48,7.93-3.22,15.35-8.45,22.76-12.72,2.52-1.45,4-3,6.92-2.31s3.55,2.86,5.11,5.27c2.6,4,5.18,8,7.78,12a108.21,108.21,0,0,1-20.13,12.45c-2.09,1-4.86,2.68-7.23,2.91-2.8.28-4.49-2-6.23-4a135.94,135.94,0,0,1-9.38-12.64.34.34,0,0,0-.59.34,80,80,0,0,0,9.89,13.87c2.91,3.34,3.39,4.62,7.55,3.21a83,83,0,0,0,27.08-15.52.67.67,0,0,0,.44-.36l.14-.12C444.22,520.54,443.77,519.86,443.33,520Z" transform="translate(-314.66 -133.57)"/><path class="cls-1" d="M464.61,518.22a.6.6,0,0,0-.53-.13.59.59,0,0,0-.62-.43l-15.84.76c-.71-1.52-1.85-3.07-2.44-4.11q-2.73-4.89-5.9-9.5c-2.21-3.22-5.24-9.38-9.61-9.86-2.56-.28-5.43,2-7.5,3.13q-4.92,2.75-9.69,5.76c-5.47,3.45-13.17,7.31-17.34,12.34-3,3.61-.59,6.36,1.83,9.78a84.71,84.71,0,0,0,14.52,15.91,65.76,65.76,0,0,0-8.15,15,.4.4,0,0,0-.27.38c-.14,4.34,3.92,5.35,7.49,4,4.39-1.66,8.5-5,12.49-7.48l14.54-9c9.05-5.57,18.19-11,27.16-16.71C469.39,525.15,469,521.74,464.61,518.22Zm-16.36,2.4a3.54,3.54,0,0,0-.12-.83l13.72-.66a48.5,48.5,0,0,1-7.35,6.52.28.28,0,0,0-.07-.16,8.14,8.14,0,0,0-.63-.54c.34-.32.69-.62,1-1a.47.47,0,0,0-.67-.66c-.37.36-.77.7-1.16,1a10.38,10.38,0,0,0-1.23-.67c.29-.25.59-.49.87-.75.44-.41-.2-1-.64-.65s-.82.65-1.22,1a17,17,0,0,0-2.68-.74.25.25,0,0,0-.14.49,13.25,13.25,0,0,1,2.17.78c-1,.75-1.94,1.49-2.94,2.2l-1.85-1C447,523.87,448.27,522.47,448.25,520.62Zm-14.69,17.79,2.88-1.73.8-.47a.28.28,0,0,0,.42-.24l3.5-2.06c.25.16.5.3.75.43-2.67,1.82-5.37,3.61-8.06,5.41a.2.2,0,0,0,0-.11A7.91,7.91,0,0,0,433.56,538.41Zm-8.88,5.27c0,.13.07.26.12.39s.52.24.5-.07-.06-.43-.08-.64l3.31-2c.06.13.11.27.18.39a.26.26,0,0,0,.47-.2c0-.16-.1-.33-.14-.49l3.85-2.29a8.05,8.05,0,0,0,.56,1,.19.19,0,0,0,.16.1c-1.73,1.16-3.45,2.34-5.19,3.49-2.56,1.7-5.12,3.44-7.69,5.16-.08-.8-.17-1.6-.26-2.4Zm-4.3,1.68c-.12-1.09-.23-2.17-.33-3.26l3.86-1.81c.14.87.32,1.73.54,2.57Zm7.77-4.77-3,1.87c-.13-.83-.32-1.66-.52-2.49l2.88-1.36A15.91,15.91,0,0,0,428.15,540.59Zm0-2.31,3.7-1.81,0,0c.22.46.42.94.62,1.42l-3.71,2.26C428.59,539.56,428.37,538.92,428.15,538.28Zm11.69-6.1c1.29-.75,2.55-1.54,3.79-2.35a13.52,13.52,0,0,0,1.25.65q-2,1.26-4,2.45c-.15-.09-.3-.17-.44-.27S440.05,532.34,439.84,532.18Zm.46,1.11-3.22,1.9c-.3-.32-.6-.63-.91-.94,1.07-.57,2.12-1.17,3.17-1.78C439.65,532.76,440,533,440.3,533.29Zm2.89-4.57a17.51,17.51,0,0,1-2.07-1.31c-.23-.17-.53.22-.31.4a21.53,21.53,0,0,0,1.74,1.33c-1.23.77-2.46,1.51-3.71,2.24-.28-.25-.57-.49-.84-.75s-.4.08-.25.24l.7.73c-1.05.6-2.1,1.2-3.17,1.77-.76-.75-1.52-1.52-2.22-2.34l3.92-2.1c1.9-1,5.31-2.06,7.89-3.63h0c.56.36,1.13.74,1.7,1.13C445.46,527.22,444.33,528,443.19,528.72Zm-7.76,5.92c.33.33.66.63,1,.93-.81.48-1.63,1-2.43,1.45l-.79.48c-.2-.47-.42-.93-.67-1.39C433.51,535.62,434.48,535.15,435.43,534.64Zm6.39-1.11c1.42-.84,2.83-1.7,4.21-2.59l.6.19L442.46,534A7.14,7.14,0,0,0,441.82,533.53Zm3.85-3.56c-.45-.2-.88-.41-1.31-.63,1.09-.72,2.15-1.48,3.2-2.25.4.26.79.51,1.19.74C447.74,528.57,446.72,529.29,445.67,530Zm2.56-3.37c1-.74,1.94-1.52,2.88-2.32.41.21.82.45,1.22.7-.94.82-1.9,1.61-2.9,2.36C449,527.08,448.64,526.84,448.23,526.6Zm1.53,1.76a2.49,2.49,0,0,0,.28.15.31.31,0,0,0,.31-.54l0,0c1-.76,2-1.58,2.89-2.42l.79.5c-2.25,1.65-4.59,3.21-6.89,4.78a.23.23,0,0,0-.15-.24l-.19-.09C447.79,529.8,448.78,529.09,449.76,528.36Zm-48,1.62a49.39,49.39,0,0,1-4.7-6.39c-2.78-5.06-.43-6.93,3.49-9.87,7.47-5.6,16.29-12.61,25.06-15.91,7.69-2.89,11.33,5.72,14.76,11.09q1.64,2.58,3.15,5.22c.67,1.18,1.33,2.37,2,3.57q2.35,5-2,6.17c-3.62,3.27-10.05,5.38-14.41,7.72l-16,8.56a.33.33,0,0,0-.36.13l-.09.11h0a.6.6,0,0,0-.33.46l-.18.24A121,121,0,0,1,401.72,530ZM408,549.9c1.32-2.53,2.8-5,4.34-7.38.42.16.89-.35.5-.73l0,0,.07-.11a.66.66,0,0,0,.45-.06l19.27-10.32c.63.82,1.29,1.67,2,2.47-.86.46-1.74.9-2.61,1.35-.44-.74-.9-1.45-1.31-2.11a.3.3,0,0,0-.51.3c.4.71.79,1.42,1.17,2.15-1.17.6-2.36,1.19-3.54,1.78-.25-.73-.5-1.46-.69-2.21-.07-.27-.47-.15-.42.12.16.76.33,1.57.53,2.39l-2.87,1.41c-.17-.66-.34-1.31-.48-1.95-.07-.29-.51-.16-.45.13.12.69.23,1.4.34,2.11L420,541.07c0-.44-.07-.89-.09-1.34a.22.22,0,0,0-.43,0c0,.53,0,1.07,0,1.6-1.1.54-2.18,1.1-3.27,1.65,0-.56,0-1.12,0-1.67,0-.32-.44-.3-.48,0-.07.66-.16,1.34-.24,2l-1.89.95c-.45.24-.05.91.41.69l1.36-.65c-.17,1.44-.3,2.88-.33,4.31l-1.35.83a.31.31,0,0,0,.31.53l1.05-.62c0,.28,0,.57,0,.85s.56.47.63.09.14-1,.2-1.44l3.87-2.28c.09.73.19,1.45.33,2.17a.24.24,0,0,0,.11.16c-3,2-6.05,4-9.16,5.75-1.87,1.06-5,3.3-5.16-.42C405.84,553.26,407.46,550.88,408,549.9Zm11.72-4.11L416,548.05c.13-1.36.16-2.74.18-4.11l3.3-1.58C419.51,543.51,419.58,544.65,419.69,545.79ZM465,526.29l-3.88,2.39-7.76,4.78-14.55,8.95-14.55,9c-1.81,1.12-17.87,12.61-20.14,6.81,5,.15,9-3.15,13-5.76q8.79-5.65,17.47-11.47c9.74-6.51,21.62-12.69,29.14-21.89Q467.06,521.58,465,526.29Z" transform="translate(-314.66 -133.57)"/><path class="cls-1" d="M652.54,212.24a3.25,3.25,0,0,0-.63-1.31.47.47,0,0,0-.29-.38l-.08,0-.06-.07a.47.47,0,0,0-.4-.13A30.85,30.85,0,0,0,643,208.2c-3.41-.49-6.48-1.46-9.8-2.22-3-.68-6.15-.07-6.26,3.35A236.31,236.31,0,0,0,620,241.67c-.35,2.75.34,7.49,3.47,7.17a85.81,85.81,0,0,0,15.94,3.3.37.37,0,0,0,.15,0c8.67,3.09,13-34.84,13.72-39.24A.59.59,0,0,0,652.54,212.24Zm-12.73,39.22a.42.42,0,0,0-.27-.23,88.68,88.68,0,0,0-14.84-2.88c-6.76-1.12-1.23-19.07-.46-22.7,1.24-5.85,2.68-11.66,4.1-17.47a.57.57,0,0,0,0-.26c2.63-2.16,9.88.7,11.93,1,3.76.62,7.26.94,10.77,2.59a.51.51,0,0,0,.29,0,3.84,3.84,0,0,1,.86,1.35c-1,6.3-2.18,12.58-3.53,18.83C648,234.81,645.39,252.7,639.81,251.46Z" transform="translate(-314.66 -133.57)"/><path class="cls-1" d="M632.66,244.28c-.94-.23-2.43.43-2.36,1.56a.39.39,0,0,0,.36.35,1.33,1.33,0,0,0,.49,1.37,1.72,1.72,0,0,0,2.66-.82A1.81,1.81,0,0,0,632.66,244.28Zm-.42,2.86c-.9.08-1.54-1.21-.56-1.62a.16.16,0,0,0,0-.31,1.19,1.19,0,0,1,.45-.15.9.9,0,0,1,1,.95A1.05,1.05,0,0,1,632.24,247.14Z" transform="translate(-314.66 -133.57)"/><path class="cls-1" d="M649.8,213.74c.1-.66-.89-1-1-.28-1.8,9.95-4.08,19.65-6.77,29.4-5.77-1.23-11.55-2.37-17.3-3.73a.28.28,0,0,0,.13-.18,169.87,169.87,0,0,0,6.65-28.67c4.37,2.57,11.48,4,16.46,3.63a.42.42,0,0,0,.11-.82c-2.95-.72-6-.86-9-1.5-2.58-.55-5.1-1.54-7.72-1.87-.24-.21-.65-.2-.72.2-1.81,9.72-3.86,19.29-6.48,28.84a.33.33,0,0,0,0,.26.24.24,0,0,0-.11.47,108.93,108.93,0,0,0,18,4.31.5.5,0,0,0,.55-.61A164.62,164.62,0,0,0,649.8,213.74Z" transform="translate(-314.66 -133.57)"/><path class="cls-1" d="M474.07,401.73c-.49-2.15-.62-5.49-1.9-7.31a.6.6,0,0,0-.94-.12l-.17.17a.58.58,0,0,0-.13.61.3.3,0,0,0-.16-.05c-3.61-.35-7.34-.22-11-.33a.54.54,0,0,0-.8,0,.43.43,0,0,0-.28.45s0,0,0,.05a.32.32,0,0,0,0-.14c-.65-2.1-2.43-4.11-3.93-5.67a22.26,22.26,0,0,0-4.91-3.85.54.54,0,0,0-.27-.39,26.92,26.92,0,0,0-.11-3.24,20.26,20.26,0,0,0-.2-3.82.48.48,0,0,0-.17-.69c-2-1.36-4.13-2.51-6.14-3.85-1.57-1.05-3.15-2.66-4.88-3.41-3.54-1.52-8.16,1.41-11.46,2.61l-.08.05c-.35-.14-.89-.05-1,.42-.56,3.65-1.12,7.31-1.54,11a23.86,23.86,0,0,0-18.34,10.57c-2.32-2.23-7.38-2.59-9.05.3a.17.17,0,0,0,0,.22,2.84,2.84,0,0,0-1.71,0c-1.7.65-3.06,4.33-4,5.8q-3,4.53-6,9.07a.7.7,0,0,0,.41,1,63.28,63.28,0,0,1,11.29,4.21,17.41,17.41,0,0,0,4.87,18.05c-1.55.81-3.1,1.65-4.64,2.5-1.13.61-3.47,1.34-4.24,2.37s-.52,1.44.31,2.7c2.15,3.25,4.8,6.26,7.19,9.34,1.18,1.52,2.53,4.4,4.58,5h0c-.19.49.61.82.85.36a19.77,19.77,0,0,1,2.65-4,25,25,0,0,1,3.67-3.06.1.1,0,0,0,0-.05,29.6,29.6,0,0,0,27-.78c1.12,2.34,2.54,6.14,4.29,7.84,1.28,1.23.71.86,2.26.78,2-.11,4.81-2.45,6.54-3.44,2.92-1.68,5.74-3.51,8.5-5.45a.7.7,0,0,0,.24-.95l-.13-.17a35.65,35.65,0,0,0,.53-8.06.1.1,0,0,0,.05,0,.43.43,0,0,0,.51-.67,4.87,4.87,0,0,0-.5-.4,25.27,25.27,0,0,0,5.53-20l0,.05a.29.29,0,0,0,.44.06l.09-.08a.22.22,0,0,0,.06-.24.66.66,0,0,0,.27-.52,7,7,0,0,0,1.86-.89,24,24,0,0,0,3-2.94c.95-1,2.5-2.44,2.83-3.92C475.78,406.78,474.49,403.6,474.07,401.73Zm-14.25-6.15a45.92,45.92,0,0,0,9.23.6c-.91.57-1.77,1.24-2.7,1.77a31.48,31.48,0,0,1-3.62,1.72.74.74,0,0,0-.39,0,35.35,35.35,0,0,1-7,1A14.31,14.31,0,0,0,459.82,395.58Zm-10.35-9.31h0a30.32,30.32,0,0,1,4.46,3.93c1.53,1.64,2.53,3.63,4,5.31a.43.43,0,0,0,.6,0,14.83,14.83,0,0,1-3.66,4.41.52.52,0,0,0-.43-.23,21.93,21.93,0,0,0-13.13-11.28l0,0,0,0A36.24,36.24,0,0,0,449.47,386.27Zm-1-1.31a.37.37,0,0,0-.15.43c-2.58.84-5.17,1.5-7.81,2.18.86-2.05,2-4.85,2-6.63v-.16a13.65,13.65,0,0,0,6-1.54,23.82,23.82,0,0,0-.09,2.67A18.38,18.38,0,0,0,448.5,385ZM439.9,373c2.79,1.75,5.34,3.79,8.34,5.17-1,.2-1.9.66-2.87.94a23.45,23.45,0,0,1-3.1.67c-.06-.08-.14-.17-.24-.28-1.31-1.39-5.43-2.39-7.19-3.14L428,373.43C432.15,371.92,435.57,370.3,439.9,373Zm-43,22.32c1.49-.63,2.79-1.34,4.47-1.21a6.25,6.25,0,0,1,3.69,1.68,20.82,20.82,0,0,0-1.8,4c-1.52-1.41-4.2-3.77-6.41-4.43Zm63.65,41.48a15.68,15.68,0,0,0-3.28-1.58c-.33-.12-.57.43-.24.58a22.41,22.41,0,0,1,2.17,1.14,10.17,10.17,0,0,1,.86.6.32.32,0,0,0,.1.42c.07,2.56,0,5.08-.17,7.62a39.11,39.11,0,0,0-6.46-6.59c6.08-4.65,8.67-14.74,5.76-21.81,2.14.13,4.31.07,6.47,0a.11.11,0,0,0,0,.08A27.77,27.77,0,0,1,460.54,436.81ZM458.45,416h-.15a.55.55,0,0,0-.31,1c1.78,8.71.2,14.75-5.38,21.6a.67.67,0,0,0-.27,1.08c1.85,1.65,4.44,3.43,5.68,5.62,1,1.78.28,2.08-1.2,3.05q-1.8,1.2-3.66,2.31c-1.77,1.08-4.85,3.62-6.93,3.85-3.08.33-5.06-4.74-6.47-7.19a.66.66,0,0,0-.72-1.1,30.58,30.58,0,0,1-27,1.55h0a.58.58,0,0,0-.77-.19,14.23,14.23,0,0,0-6.17,6.75c-.6-.76-9.21-11.73-10-12.71-1.89-2.48-1.55-2.32,1.16-3.8,2.11-1.15,4.22-2.28,6.3-3.47a.67.67,0,0,0-.36-1.23,19.35,19.35,0,0,1-4.36-17.21.41.41,0,0,0,.19-.75h0l.12-.51c.16-.62-.8-1.09-1.08-.46l-.12.31a43,43,0,0,0-10.36-4.39q3.19-4.8,6.35-9.6c1.6-2.42,2.37-3.69,5.38-2.53,1.6.61,3.09,2,4.56,3a.34.34,0,0,0,.61.17.55.55,0,0,0,.36-.73,28.76,28.76,0,0,1,2.17-3.94.48.48,0,0,0,.43-.64,23.89,23.89,0,0,1,17.95-10.31.69.69,0,0,0,.37-1.23c.72-3.29,1.34-6.6,1.94-9.92l10.6,4.58a15.1,15.1,0,0,1,2.54,1.1c.5.33.76.45.89.54a.36.36,0,0,0,.13.19c0,.15-.08.41-.11,1.1-.1,2.09-1.4,4.47-1.83,6.55a.57.57,0,0,0,.95.54.18.18,0,0,0,.07.05,23,23,0,0,1,13.48,11.78.51.51,0,0,0,.17,1H454a.56.56,0,0,0,.78,0,32,32,0,0,0,7.3-.72q2,7.4,4,14.79C463.54,415.84,461,415.75,458.45,416Zm14.68-7.87c-.71,3.71-3.1,5.49-5.59,7.94q-2.15-7.86-4.32-15.72a18.12,18.12,0,0,0,7.28-3.86.48.48,0,0,0,.13-.44l.27,0a.41.41,0,0,0,.33-.57.49.49,0,0,0,.71-.08,5.39,5.39,0,0,0,.2,3.34c.12.56.25,1.12.37,1.68C473.16,403.28,473.7,405.14,473.13,408.12Z" transform="translate(-314.66 -133.57)"/><path class="cls-1" d="M439.7,417.67c-1-6.34-6.92-12.25-13.53-10.39l-.07,0a.29.29,0,0,0-.11-.06c-6.62-.77-11.28,5.31-10.54,11.66A12.65,12.65,0,0,0,429.28,430C435.32,429.23,440.67,424,439.7,417.67ZM428,428.76c-12.57.27-16-19.6-2.27-20.93a.71.71,0,0,0,.24.56c-3.08,6.85.66,17,8.78,18A11.76,11.76,0,0,1,428,428.76Zm7.57-3.1,0,0c-3.24-1.58-6.17-2.8-8.09-6.07-2.05-3.5-1.92-7.38-.72-11.08,6.06-1.29,11.81,4.78,11.8,10.76A8.75,8.75,0,0,1,435.55,425.66Z" transform="translate(-314.66 -133.57)"/><path class="cls-1" d="M663.46,802c-5.67-8.71-20.12-10-29.05-7.42a.6.6,0,0,0-.18.09.64.64,0,0,0-.59-.15,29.47,29.47,0,0,0-15.59-4.21c-3.33,0-11.81-.48-14,2.63a6,6,0,0,0-.67,2.68c-.71,4.47-.79,9.11-1.32,13.61-1.07,9-2.46,18-3.85,26.92-.06.42.29,1,.8.79.16-.07.34-.12.51-.19a11.47,11.47,0,0,0-1.23,2.48c-.13.36.26.66.59.59,4.9-1.13,9.33-3.47,14.12-4.92a40,40,0,0,1,16.88-1.18.45.45,0,0,0,.53-.34A68.47,68.47,0,0,1,652,846.66a.56.56,0,0,0,.78,0,15.72,15.72,0,0,0,2-2.47.62.62,0,0,0,.91-.37q3.12-12.93,6.18-25.88C662.92,813.43,666.35,806.47,663.46,802ZM613.62,833.5a69.88,69.88,0,0,0-7.51,2.8c-1.93.78-7,3.5-5.69.13a60.43,60.43,0,0,1,16.37-3.64C615.73,833,614.68,833.21,613.62,833.5Zm16.11-1.72A60.83,60.83,0,0,0,606.65,833c-4.46,1.14-7.3,4-6.35-2.14.69-4.51,1.38-9,2-13.54.47-3.45.91-6.9,1.3-10.35.43-3.75-.49-11.89,3.12-14.18,2.83-1.8,9.93-1.29,13.25-1.11a33.06,33.06,0,0,1,13.11,3.49C631.68,807.23,629.73,819.63,629.73,831.78Zm21.18,12.48a10,10,0,0,1-1.93-1.59,62.85,62.85,0,0,0-6.05-4.21,61.42,61.42,0,0,0-11.5-5.38c9-.63,15.92,4.66,22.38,10.33A2.35,2.35,0,0,1,650.91,844.26Zm7-15.42c-.47,2-1.49,11.6-2.92,12.38-2,1.12-5.29-3.06-7.37-4.47-5.23-3.54-10.81-5.44-17.09-4.48l0-.08c2-12,2.47-24.31,3.83-36.38a.65.65,0,0,0,.44.05c8.29-2.22,17.26-1.17,24.33,3.95C666.58,805.23,659.67,821.25,657.88,828.84Z" transform="translate(-314.66 -133.57)"/><path class="cls-1" d="M624.05,825.64a38,38,0,0,0-20.43,3.86c-.21.1-.06.47.17.39a57.74,57.74,0,0,1,20.26-3.49A.38.38,0,0,0,624.05,825.64Z" transform="translate(-314.66 -133.57)"/><path class="cls-1" d="M626.4,821.63a78.54,78.54,0,0,0-21.91.92c-.39.07-.22.65.16.59a111.39,111.39,0,0,1,21.75-.71C626.93,822.46,626.91,821.69,626.4,821.63Z" transform="translate(-314.66 -133.57)"/><path class="cls-1" d="M628.25,816.65a25.54,25.54,0,0,0-19.79.41c-.26.12-.07.56.2.47,6.74-2.09,12.53-1.95,19.3-.2C628.36,817.43,628.65,816.82,628.25,816.65Z" transform="translate(-314.66 -133.57)"/><path class="cls-1" d="M627.74,811.12A30.18,30.18,0,0,0,617.68,810c-2.11.09-8.24.1-9.42,2a.23.23,0,0,0-.36-.28l-.28.25a.29.29,0,0,0,.28.48,42.89,42.89,0,0,1,19.64-.59A.38.38,0,0,0,627.74,811.12Z" transform="translate(-314.66 -133.57)"/><path class="cls-1" d="M627.7,806.12c-1.29-1.6-5-1.53-6.9-1.67A32.11,32.11,0,0,0,610,805.51a.32.32,0,0,0,.16.61,33.47,33.47,0,0,1,8.86-.94,30.5,30.5,0,0,1,4.66.53c1,.18,2.31.85,3.25.73-.34,0-.5.6-.09.68l.32.06a.42.42,0,0,0,.45-.18l.17-.35A.47.47,0,0,0,627.7,806.12Z" transform="translate(-314.66 -133.57)"/><path class="cls-1" d="M629.82,801.58a20.84,20.84,0,0,0-11.16-2.71c-2.73,0-8.59-.27-10.89,1.48a.33.33,0,0,0,0,.57l.21.15a.32.32,0,0,0,.42-.11l.11-.15c.16-.21,0-.44-.26-.44.82-.2,3.8-.15,4.56-.23,1.7-.18,3.41-.31,5.12-.33a27.13,27.13,0,0,1,11.5,2.43C629.88,802.43,630.26,801.85,629.82,801.58Z" transform="translate(-314.66 -133.57)"/><path class="cls-1" d="M651.49,832.6a22.45,22.45,0,0,0-8.57-4.51c-2.49-.74-6.54-1.87-9.06-.87a.34.34,0,0,0-.22.4l0,.29a.32.32,0,0,0,.21.21l.25,0a.28.28,0,0,0,.15-.54c1.66.57,3.93.25,5.69.62a24.13,24.13,0,0,1,3.23.89,40.78,40.78,0,0,1,7.79,4.1C651.38,833.46,651.83,832.91,651.49,832.6Z" transform="translate(-314.66 -133.57)"/><path class="cls-1" d="M654,828.62c-4.64-4.24-11.36-6-17.52-5.82a.32.32,0,0,0,0,.63c6.59.05,11.63,2.27,17.07,5.76A.37.37,0,0,0,654,828.62Z" transform="translate(-314.66 -133.57)"/><path class="cls-1" d="M655.18,823.38c-4.29-6.43-12.56-6.37-19.46-5.85-.38,0-.39.61,0,.59,7-.24,14.09-.26,18.84,5.74C654.84,824.22,655.43,823.76,655.18,823.38Z" transform="translate(-314.66 -133.57)"/><path class="cls-1" d="M656.32,815.78c-5-4.1-12-5.57-18.26-4.92-.35,0-.37.59,0,.57,6.75-.4,12.1,1.51,17.85,4.87C656.23,816.49,656.62,816,656.32,815.78Z" transform="translate(-314.66 -133.57)"/><path class="cls-1" d="M657.62,809.39c-5.43-4.46-12.88-5.83-19.69-4.65-.43.08-.24.71.18.65,7.09-1,13.06.89,19,4.63C657.51,810.25,658,809.68,657.62,809.39Z" transform="translate(-314.66 -133.57)"/><path class="cls-1" d="M655.72,802.74c-4.49-4-11-5.53-16.88-4.81-.42.05-.43.7,0,.66,6.27-.57,11.27,1.3,16.39,4.77C655.61,803.62,656.05,803,655.72,802.74Z" transform="translate(-314.66 -133.57)"/><path class="cls-1" d="M586.24,260.37c-1.63-3.82-3.41-7.57-5.29-11.26-1.22-2.41-2.54-6-4.54-7.93-1.66-1.61-3.88-2-6.22-1.74a.45.45,0,0,0,.06-.12c.76-4.27-5.17-11.14-8.27-13.73-4.32-3.6-10.16-5.26-15.48-3-11.71,5-11.33,19.35-5.08,28.43-.17.13-.36.25-.52.38-3.77,3.11-3.1,6.63-.84,10.3a.32.32,0,0,0,0,.27c2.34,5.87,4.42,15,9.39,19.39,4,3.54,8.68,1.85,13.06,0,4.08-1.73,8.09-3.67,12.12-5.51,3.4-1.54,7.6-2.84,10.64-5.05C589.3,267.87,588,264.39,586.24,260.37Zm-40.59-35.78c5.7-3.3,12.32-1.1,16.72,3.26.38.38,7.57,10.47,6.73,10.82a.64.64,0,0,0-.27,1A31.85,31.85,0,0,0,564,241c-2.16-5.6-7.07-14.54-14.57-11.17-6.45,2.89-4.93,12.45-2,17.53a37.6,37.6,0,0,0-5.12,3C537.33,242.09,535.9,230.22,545.65,224.59Zm2.56,22.4c-1.91-4.74-4-12.58,1.43-15.54,6.74-3.68,11.06,5.13,13,10l-2.16.78A115.56,115.56,0,0,0,548.21,247Zm35.11,23.49c-1.68,1-3.55,1.66-5.31,2.46l-13.11,6c-4,1.82-9,5-13.54,2.49-2.09-1.15-3.6-4-4.6-6.11-2-4.18-3.72-8.55-5.61-12.81a.39.39,0,0,0,.1-.53c-6.75-11.42,16.46-17.57,23.49-19.68,4-1.2,7.94-3,11.48.79,1.17,1.26,1.89,3.35,2.67,4.84,2.08,4,4.05,8,5.83,12.15C586.43,264,587.84,267.89,583.32,270.48Z" transform="translate(-314.66 -133.57)"/><path class="cls-1" d="M575.18,264a33.22,33.22,0,0,0-8-5.57c1.79-1.24,2.21-4,1.48-6.11a6.65,6.65,0,0,0-7.31-4.42,8,8,0,0,0-6.62,7c-.34,3.44,2.16,6.65,5.75,6.24a73.09,73.09,0,0,0,.06,11.65.66.66,0,0,0,1,.57L575,265A.68.68,0,0,0,575.18,264ZM556.3,253.6a6.61,6.61,0,0,1,5.19-4.4c4.83-.78,9,6.13,3.76,8.76-.47.24-.27,1.11.28,1l.24-.05a.58.58,0,0,0,.22.27,57.56,57.56,0,0,1,7.54,5.14l-11.81,7.25c-.31-3.52-.42-7-.39-10.54a.39.39,0,0,0-.35-.42.43.43,0,0,0-.44-.56C557,260.16,555.28,256.71,556.3,253.6Z" transform="translate(-314.66 -133.57)"/><path class="cls-1" d="M547.09,856.64c-1.52-1.78-6.17-.71-8.2-.73l-18.49-.27c-9.72-.14-19.45-.31-29.17-.34.06-1,.11-2.1.16-3.15A.46.46,0,0,0,492,852c.52-.68,9.35-13.09,9.65-12.93,1.22.64,1.93,8.63,2.47,10.4a.63.63,0,0,0,1.21,0c2.4-6.2,4.8-14.45,8.81-19.91,1-1.36.68-2.59,2.12-.79.75,1,.39,3.91.51,5.2a23.69,23.69,0,0,0,1.45,7.12.66.66,0,0,0,1.18.16l13-18.62c.5-.72-.67-1.4-1.17-.69l-5.85,8.4c-.92,1.33-4.63,8.27-6.23,8.58-.2,0-2-11.83-3-13.9a.65.65,0,0,0-1.11,0,221.23,221.23,0,0,0-10.22,22.32,50.62,50.62,0,0,1-1.72-10.42.62.62,0,0,0-1.14-.31c-3.47,4.9-7,9.74-10.49,14.65a344.48,344.48,0,0,0-.55-45.44c-.05-.56-.91-.57-.88,0,.64,16.53.72,33-.15,49.47h-6.43a.5.5,0,0,0,0,1q3.18.12,6.36.19c-.12,2.2-.26,4.39-.42,6.59-.06.85,1.26.84,1.32,0q.26-3.27.46-6.54c7.82.2,15.65.29,23.47.41l15,.21,6.93.1c.81,0,6.95-.42,9.21-.54a.56.56,0,0,0-.1.7l.13.21a.63.63,0,0,0,.86.22l.29-.18A.67.67,0,0,0,547.09,856.64Z" transform="translate(-314.66 -133.57)"/><path class="cls-1" d="M494.28,851.72c-.08,0-.08.14,0,.14A.07.07,0,0,0,494.28,851.72Z" transform="translate(-314.66 -133.57)"/><path class="cls-1" d="M494.28,852.11h-.38a.07.07,0,1,0,0,.14h.38A.07.07,0,0,0,494.28,852.11Z" transform="translate(-314.66 -133.57)"/><path class="cls-1" d="M535.19,816.89c-3.31,1.8-6.65,3.54-9.92,5.4-.61.35-.07,1.25.55.94,3-1.47,6-3.05,9-4.6a37.75,37.75,0,0,1-.33,4.1,26.67,26.67,0,0,0-.7,4.59.48.48,0,0,0,.89.24c1.59-2.65,1.54-7.09,1.55-10.08A.69.69,0,0,0,535.19,816.89Z" transform="translate(-314.66 -133.57)"/><path class="cls-1" d="M442.62,197.9c-2.84-3.22-8.12-5-11-1a.64.64,0,0,0-.47.17c-12.7,11.64-25.73,23-38,35.09a.39.39,0,0,0-.38.29.5.5,0,0,1,0,.13h0a.25.25,0,0,0-.08.27c-1.45,4.52-2.79,9.07-4.38,13.54-.18.5.34.84.76.77,4.64-.74,9.6-2.19,13.53-4.87a.5.5,0,0,0,.59-.05c13-11.19,25.79-22.83,38.1-34.75a.57.57,0,0,0,.16-.23,5.27,5.27,0,0,0,3.23-3.61C445.13,201.49,444,199.52,442.62,197.9Zm-12,1.43c1.25,1,2.46,2,3.66,3.08a.45.45,0,0,0-.57,0c-12.2,10.06-23.87,21-35.41,31.81a3.65,3.65,0,0,0-3.29-2.42C407.15,221.33,418.8,210.2,430.61,199.33Zm3.74,3.16c.93.82,1.84,1.65,2.74,2.51h0c-11.94,10.47-23.7,21.12-35,32.24a1.69,1.69,0,0,0-.57-1.57,2.55,2.55,0,0,0-3-.11,2.81,2.81,0,0,0,0-.65c12.14-10.34,24.43-20.78,35.89-31.86A.39.39,0,0,0,434.35,202.49Zm-44.62,43.29c.53-1.55,1-3.11,1.52-4.68l.05,0a8.35,8.35,0,0,1,2.72,1.69c.28.26.53.55.8.82a2.24,2.24,0,0,1,.47.45v0A38.26,38.26,0,0,1,389.73,245.78Zm13-4.57a.58.58,0,0,0-.65-.05c-2,1-4,1.85-6,2.63,0,0,0,0,0-.06-.2-.72-1-1.24-1.52-1.67a8.35,8.35,0,0,0-3.11-1.72h0c.74-2.41,1.41-4.84,2-7.3a.46.46,0,0,0,.27-.11l.25-.22a2.73,2.73,0,0,1,3.3,3.66v0l-.2.17c-.17.15,0,.4.22.3l.08,0a.53.53,0,0,0,.84-.19c0-.11.07-.21.11-.31a3.32,3.32,0,0,1,.68-.27,2.19,2.19,0,0,1,1.19,0c1,.28,1.1.83.37,1.65a.53.53,0,0,0-.13,1A12.12,12.12,0,0,1,403,241Zm1-.94a12.88,12.88,0,0,0-2.15-2.09,1.8,1.8,0,0,0,.36-.59.27.27,0,0,0,.43.09c11.76-10.7,23.5-21.42,35.46-31.89l0,0c.53.53,1.08,1.06,1.6,1.6C427.29,218,415.33,229,403.74,240.27Zm36.49-33.93-.18.1a52.19,52.19,0,0,0-9-7.48c.34-.31.68-.62,1-.94,0,0,.05-.07.08-.11a68.44,68.44,0,0,1,8.61,8.24A4.56,4.56,0,0,1,440.23,206.34Zm1.47-.72a53.57,53.57,0,0,0-9.2-8.41C437.62,192,446.83,202,441.7,205.62Z" transform="translate(-314.66 -133.57)"/><path class="cls-1" d="M471.32,708.31c-2-5.65-9.75-10.1-14.13-4.16a.43.43,0,0,0,0,.55,11.42,11.42,0,0,0-2.27,9.48,6.34,6.34,0,0,0,2.3,4.12c2.3,1.64,5.31.2,7.34,2.45a.55.55,0,0,0-.06.22,32,32,0,0,1-4.79,15.69c-2.49,3.81-5.83,5.3-9.66,2.61a7.38,7.38,0,0,0-2.38-1.38c-4.29-1.08-7.94,3.54-9.68,7.46-1.1.51-1,2.06-.84,3.39a9.48,9.48,0,0,0,6.48,7.37c9.86,3.26,17.41-7,21.45-14.3C470.22,732.51,475.14,718.93,471.32,708.31Zm-.26,9a51.27,51.27,0,0,1-4.78,19.3c-2.2,4.89-5,10.22-8.89,14-2.76,2.66-6.25,4.79-10.21,4.83a9.15,9.15,0,0,1-6.8-2.62,5.6,5.6,0,0,1-1.59-7.14.24.24,0,0,0,.12-.37c2.09-3.35,5.85-7.4,9.51-5.68,1.63.76,2.34,2.38,4.15,2.9a5.41,5.41,0,0,0,4.85-1.19c5.83-4.18,8.09-13.63,8.24-20.33a.5.5,0,0,0-.1-.31.41.41,0,0,0,0-.19c-1-2.45-3.12-2-5.36-2.47-6-1.33-4.86-9.15-2-13.32,3.79-3.65,9-1.76,11.31,2.58C471.05,710.3,471.16,714,471.06,717.29Z" transform="translate(-314.66 -133.57)"/><path class="cls-1" d="M436.43,740.36c-3.18,1.83-4.09,6.65-3.24,9.93.11.45.75.26.68-.18a9.73,9.73,0,0,1,.45-5.21A17.21,17.21,0,0,1,437,741C437.3,740.59,436.78,740.17,436.43,740.36Z" transform="translate(-314.66 -133.57)"/><path class="cls-1" d="M430.87,738.89c-2.61,2.45-3.2,6.85-2.61,10.21.07.4.75.31.72-.1a13.55,13.55,0,0,1,.4-5,23.16,23.16,0,0,1,2.21-4.53A.46.46,0,0,0,430.87,738.89Z" transform="translate(-314.66 -133.57)"/><path class="cls-1" d="M428.27,733.75c-3.6,2.24-5.95,6.83-6.32,11,0,.38.58.47.66.09.94-4.4,3-7.29,6.22-10.33A.47.47,0,0,0,428.27,733.75Z" transform="translate(-314.66 -133.57)"/><path class="cls-1" d="M503.93,171.37c-1.92-4.61-3.87-14.41-9-16.81C490,152.27,482.82,156,478.17,158a5.91,5.91,0,0,0-7.25-2.21,5.71,5.71,0,0,0-2.83,6.94l-2.88,1.49-1.32.66a10.69,10.69,0,0,1,5-11.28c4.66-2.62,9.13-.45,12.87,2.48.4.32,1.07-.07.76-.59-2.63-4.46-9.47-5.45-13.85-3.25a11.3,11.3,0,0,0-5.55,13,32,32,0,0,0-7.36,4.28c-2,1.79-2.59,4.48-.5,6,3.57,7.26,7.32,15.55,12.4,21.83,4.35,5.38,10.39,1.52,15.78-.6,7.38-2.92,16.48-6.09,22.72-11.06C510.87,181.92,505.83,175.92,503.93,171.37Zm-32.54-14.44a4.71,4.71,0,0,1,5.63,1.59q-4.2,1.83-8.27,3.91A4.93,4.93,0,0,1,471.39,156.93Zm-16.21,16.58c-.47-2.53,6.48-5.82,7-6.11,2.15-1.16,4.31-2.3,6.48-3.4A125.43,125.43,0,0,1,484.76,157c1.94-.66,4.72-1.76,6.75-1.61,5.69.42,7,6.42,8.69,10.64a.47.47,0,0,0-.35.3c-.29.73-.29,1.51-.65,2.23a6.4,6.4,0,0,1-1.64,2c-1,.86-2.53,1.31-3.54,2.17l-.07-.12c-1.14-1.77-3.45-3.66-5.68-2.87a.45.45,0,0,0-.22.65,8.5,8.5,0,0,0,1.26,4.91.52.52,0,0,0-.36,0,101,101,0,0,1-13.55,5.9c-.39-.62-.81-1.16-1.09-1.54-1.33-1.74-3.52-3.13-5.74-2.41a.31.31,0,0,0-.57.23.45.45,0,0,0,0,.11.52.52,0,0,0,.18.65,13.31,13.31,0,0,0,3.07,5.62.41.41,0,0,0-.19,0,13.39,13.39,0,0,1-2.95.83c-2.15.44-3.13-.1-4.55-1.73-1.15-1.32-1.78-3.05-2.74-4.51a17.66,17.66,0,0,0-5.22-5.11A.33.33,0,0,0,455.18,173.51Zm39.15,3.28c-.85,2.1-3.91-1.56-4.31-2.18a7.93,7.93,0,0,1-1.2-4,5.58,5.58,0,0,1,3.62,1.87,9,9,0,0,1,1.23,2C493.84,174.91,494.53,176.28,494.33,176.79Zm-20.75,7.77c-1.23-.39-2.57-2.33-3.22-3.33a13.28,13.28,0,0,1-1.44-3,4.58,4.58,0,0,1,4.26,1.8,12.91,12.91,0,0,1,1.36,2.09l.49.94C475.7,184,475.22,184.53,473.58,184.56Zm20.77,5.86a163.51,163.51,0,0,1-15.23,6.5c-4.16,1.53-8.36,2.72-11.27-1.61-1.22-1.8-2.29-3.73-3.4-5.61-2.7-4.56-5.27-9.19-7.87-13.81a.66.66,0,0,0,.17-.68,20,20,0,0,1,3.44,4.21c1,1.7,1.72,3.66,3.15,5.08,2.48,2.48,5.54,2.19,8.16.1a.35.35,0,0,0,.11-.38c1.17,1.14,3.21,2.59,4.51.93.66-.85.31-2.07-.29-3.19a44.21,44.21,0,0,0,13.68-5.68.5.5,0,0,0,.25-.35l.49.6c.94,1,3.52,3.27,4.84,1.61.94-1.19.19-3.18-.58-4.59a10.16,10.16,0,0,0,4.4-2.59,6.63,6.63,0,0,0,2-3.35l2.16,5.17c.91,2.18,3.44,6,3.47,8.33C506.56,185.84,497.93,188.68,494.35,190.42Z" transform="translate(-314.66 -133.57)"/><path class="cls-1" d="M356.4,389.05c-10.61-5.81-24.43-3.63-32.16,5.92-7.53,9.3-6,23.76,3.54,31a.42.42,0,0,0,.2.08.34.34,0,0,0,0,.1.66.66,0,0,0,.64.49c1.47.09,2.9-1.85,4-2.63a52.8,52.8,0,0,1,5.36-3.09c.71.08,1.23-.9.49-1.23a8.72,8.72,0,0,1-1.84-15.15c5.37-3.92,12.51-1.81,15.89,3.61,2.94,4.71,2.59,10.65-.07,15.41-3.91,7-10.08,9.26-17.79,6.75a.69.69,0,0,0-.77.32c-4.11,6.46-8.3,12.87-12.18,19.47a.42.42,0,0,0,.54.6.52.52,0,0,0,.32.38c3.79,1.46,7.33,3.35,11.05,4.93a.62.62,0,0,0,.75-.19.47.47,0,0,0,.68,0c1.81-2,3.49-4.13,5.2-6.22.68-.83,2.2-2.1,2.78-3.33,13.12-1.31,24.5-10.15,27.77-23.19S368.41,395.62,356.4,389.05Zm12.86,34.56c-3.35,11.95-14,20-26.11,21.28a.71.71,0,0,0-.32-.22l-.25-.08a.63.63,0,0,0-.7.29l-.1.18a.56.56,0,0,0,0,.6,18.59,18.59,0,0,1-1.73,2.12c-.72.91-1.43,1.83-2.14,2.74-1.2,1.53-2.41,3-3.54,4.62a.62.62,0,0,0-.14-.14,40.79,40.79,0,0,0-11.38-4.85h-.09c2.09-3,4.11-6.07,6.1-9.16,1.71-2.63,4.05-8.52,7.57-8.64,2.33-.09,4.35,1.17,6.87.66a12,12,0,0,0,4.52-2.12c7.48-5.34,11-16.14,5.47-24.08-4.08-5.87-12.49-7.75-18.17-2.91a10.14,10.14,0,0,0,1.76,16.53,24.26,24.26,0,0,0-3.81,1.83c-.72.43-1.42.89-2.11,1.38a7.1,7.1,0,0,0-1.07.8c-.66.67-.22.31-.53,1.1a.59.59,0,0,0-.25-.35l-.13-.09a.58.58,0,0,0-.63,0c-8.73-7.85-10.43-21.69-2-30.52a24.53,24.53,0,0,1,31.49-3A29.23,29.23,0,0,1,369.26,423.61Z" transform="translate(-314.66 -133.57)"/><path class="cls-1" d="M331.06,462.52a8.34,8.34,0,0,0-9.41-4.46.57.57,0,0,0-.51-.35c-5.7-.28-7.57,6.69-5.89,11.06a8.76,8.76,0,0,0,11.73,5A8.64,8.64,0,0,0,331.06,462.52Zm-3.94,9.63c-8.44,5.09-15.68-9.08-7.36-12.77a.35.35,0,0,0,.37.07c3.32-1.21,7.42-.26,9.34,2.92A7.39,7.39,0,0,1,327.12,472.15Z" transform="translate(-314.66 -133.57)"/><path class="cls-1" d="M590.37,195.26a.34.34,0,0,0-.31-.2,5.16,5.16,0,0,0-1.2-4.25c0-.06,0-.12,0-.19.13-2.25-1.5-4.46-3.73-4.09a.7.7,0,0,0,0-.65c-1.27-2.7-4-6.94-1.85-10,.37-.53,1.51-1,2-1.5a14.06,14.06,0,0,0,3.5-4.66,15.22,15.22,0,0,0-.37-13.48c-4.82-9.27-16.72-11.9-25.83-7.72a21.68,21.68,0,0,0-11.77,25.27c1,3.73,3.16,7.46,6.88,9,2.65,1.11,4.82.54,7.54.66,2.09.08,1.81-1.21,4.09.7,1.55,1.31,2.49,6,3.17,7.92-.43,0-.6.63-.13.75h0c-1.09.11-.47,1.85.16,2.54a5,5,0,0,0,1.75,1.2c-.18,1.8.91,3,2.49,3.73a2.41,2.41,0,0,0,.54,1.95,7.5,7.5,0,0,0,6.47,2.78C588.37,204.8,592.42,199.6,590.37,195.26Zm-20.81-13.63a.67.67,0,0,0-.74-.3c-6.68,1.76-13.27,1.07-16.05-6.22a20.53,20.53,0,0,1-.27-13.23,20.11,20.11,0,0,1,25.76-12.68,15.58,15.58,0,0,1,10.44,12.6c.79,6.49-2.37,9.14-6.62,13.26-3.26,3.16.18,7.95,1.9,11.47a.48.48,0,0,0-.2.51,2.72,2.72,0,0,1-1.26,3.36,51.33,51.33,0,0,1-5.19-22.63,11.12,11.12,0,0,0,1.41,0c2.2-.23,4-1.44,4.2-3.72,0-.61-.88-.7-1-.14-.71,2.39-2.54,2.76-4.56,2.65a69.38,69.38,0,0,1,.5-7.25c.06-.58-.9-.71-1-.14a41.39,41.39,0,0,0-.89,7.26,16.07,16.07,0,0,0-3.55-.24,9.58,9.58,0,0,0-4.4,1.66,8.93,8.93,0,0,0-2.63,2.9c-1.07-1.1-2.16-2.17-3.31-3.19a.39.39,0,0,0-.18-.38l-.94-.62c-.53-.35-1.15.45-.68.89,1.58,1.49,3.08,3,4.53,4.56a10.3,10.3,0,0,0-.54,4.86c.06.44.73.46.71,0a10.35,10.35,0,0,1,.59-4.06,80,80,0,0,1,13,18.88.5.5,0,0,0,.17.18,22.13,22.13,0,0,1-5.3.38.38.38,0,0,0,0-.3A94.76,94.76,0,0,0,569.56,181.63Zm9.66,9.6a72.14,72.14,0,0,0-13.12-19.72,8.16,8.16,0,0,1,3.43-3.35c2.17-1.13,4.24-.74,6.37-.5a48.18,48.18,0,0,0,6,23.12,11.24,11.24,0,0,1-2.73.94A.42.42,0,0,0,579.22,191.23Zm-4.46,4.46a2.46,2.46,0,0,1-1.75-2.33.21.21,0,0,0,.17-.31,13.1,13.1,0,0,0,9.23-1.38c1.31-.74,3.2-2.48,2.87-4,3.77-.17,2.25,4.83.56,6.32a8.84,8.84,0,0,1-4.12,1.83,18.69,18.69,0,0,1-3.83.33,10.45,10.45,0,0,1-2.55-.29c-.13,0-.23-.07-.35-.09A.26.26,0,0,0,574.76,195.69Zm.37,1.21a15.57,15.57,0,0,0,7.39-.12c2.42-.55,5-2,6-4.38,2.77,6.25-5.48,8.89-10.26,7.37a.15.15,0,0,0-.15-.22l-.26.07A3.92,3.92,0,0,1,575.13,196.9Zm11.43,6.22a6.56,6.56,0,0,1-4.57.78,7,7,0,0,1-1.84-.61c-.32-.16-2.53-1.66-2.67-2.68a13.12,13.12,0,0,0,7.71.24,7.76,7.76,0,0,0,4.36-4.08C589.53,199.28,589,201.62,586.56,203.12Z" transform="translate(-314.66 -133.57)"/><path class="cls-1" d="M557,193.49a13,13,0,0,1-3.34,4.95c-.33.28.14.73.46.47a10.65,10.65,0,0,0,3.63-5.22C557.87,193.2,557.16,193,557,193.49Z" transform="translate(-314.66 -133.57)"/><path class="cls-1" d="M547.74,185.13a17,17,0,0,1-5.26,3.1.33.33,0,0,0,.18.64,12.4,12.4,0,0,0,5.62-3.19C548.64,185.32,548.11,184.82,547.74,185.13Z" transform="translate(-314.66 -133.57)"/><path class="cls-1" d="M544.52,166a37.58,37.58,0,0,0-6.36.45c-.48.08-.34.81.11.82a36.72,36.72,0,0,0,6.36-.46C545.1,166.76,545,166,544.52,166Z" transform="translate(-314.66 -133.57)"/><path class="cls-1" d="M554.43,145.39c-1.55-1.07-3.14-2-4.64-3.16-.32-.24-.67.27-.42.55a12.48,12.48,0,0,0,4.77,3.31C554.57,146.23,554.76,145.62,554.43,145.39Z" transform="translate(-314.66 -133.57)"/><path class="cls-1" d="M570.62,133.79A42.29,42.29,0,0,0,569,139a.42.42,0,0,0,.81.22,39,39,0,0,0,1.57-5.06C571.49,133.68,570.83,133.31,570.62,133.79Z" transform="translate(-314.66 -133.57)"/><path class="cls-1" d="M586.59,138.86a22,22,0,0,0-2,3.87c-.24.51.48,1,.76.45a21.84,21.84,0,0,0,2-4C587.5,138.7,586.85,138.5,586.59,138.86Z" transform="translate(-314.66 -133.57)"/><path class="cls-1" d="M599.57,155.43c-.46.2-.82.56-1.27.78a4.26,4.26,0,0,1-1.6.38.43.43,0,0,0,0,.86c1.13,0,2.84-.37,3.4-1.49A.39.39,0,0,0,599.57,155.43Z" transform="translate(-314.66 -133.57)"/><path class="cls-1" d="M601,173a40.76,40.76,0,0,0-6.62.36c-.55.05-.57.9,0,.87a39.7,39.7,0,0,0,6.72-.49C601.53,173.67,601.39,173.06,601,173Z" transform="translate(-314.66 -133.57)"/><path class="cls-1" d="M574.75,787.43a18,18,0,0,0-.52-3.38c-.53-5.79-4.21-11.36-7-16.28a243.34,243.34,0,0,0-16.83-25.48.72.72,0,0,0-.73-.27c0-6.36.26-12.83,0-19.14l1.62-.11a.39.39,0,0,0,.38-.47,5,5,0,0,0-.57-9.09c-.36-.15-.64.14-.7.47a75.43,75.43,0,0,0-25.87.48c-2.17.15-3.59,3-3.25,4.92a4.17,4.17,0,0,0,3.55,3.38.45.45,0,0,0,.37.21l1.76.07h0c-1.82,6.68-1.17,15.23-.12,22a.42.42,0,0,0,.45.36c-4.14,5-7.69,10.44-11.41,15.71-3.93,5.58-8,11.24-10.65,17.58-2.29,5.51-2.46,15.42,5.09,15.31a.08.08,0,0,0,.16,0,9.25,9.25,0,0,0,1.51-.16.5.5,0,0,0,.36-.23c13.62,1.25,27.58.9,41.24.84,5.26,0,21.81,2.82,21.41-6.28A.62.62,0,0,0,574.75,787.43Zm-49.08-65.71a3.72,3.72,0,0,1-3.26-2.76c-.42-2,1.16-3.05,2.58-4,0,0,0,0,0-.06a150.06,150.06,0,0,1,26.22-.11.41.41,0,0,0,.16,0,4.07,4.07,0,0,1-.72,7.05.31.31,0,0,0-.09.07C542.42,721.21,533.89,721.5,525.67,721.72Zm47.48,68.1c-2.47,4.33-13.57,2.92-17.27,2.94-5,0-10.06,0-15.09,0-9.67-.06-19.42-.61-29.09-.35h-.12l-.95,0a.53.53,0,0,0-.17.08c-9.61.34-4.15-13.87-1.9-18.06a105.71,105.71,0,0,1,6-9.59c4.46-6.45,9.44-12.65,13.41-19.41a.42.42,0,0,0-.23-.57.41.41,0,0,0,.06-.25c-.17-3.64-.52-7.26-.55-10.91s.44-7.32.11-10.91c0,0,0,0,0-.06,7.17.29,14.55.57,21.7.16a67.5,67.5,0,0,0-.4,20.56.48.48,0,0,0,1,.11c4.68,6.29,9.11,12.74,13.2,19.43,4.68,7.68,11.79,17.06,10.16,26.44A.35.35,0,0,0,573.15,789.82Z" transform="translate(-314.66 -133.57)"/><path class="cls-1" d="M565.5,772.43a.48.48,0,0,0-.57-.16.51.51,0,0,0-.43-.2c-16.66-.05-33.61-1-50.24.1a.29.29,0,0,0-.19.51c-3,3.51-6.43,9.5-5.45,14.38.74,3.64,3.09,2.86,6.54,2.89,16,.11,32,.29,47.93.38a.2.2,0,0,0,.28,0l.11,0h.24a.53.53,0,0,0,.3-.09.5.5,0,0,0,.5-.21l0-.06c1.59-.25,3.38.47,4.82-.48a4.17,4.17,0,0,0,1.57-3.83C570.81,781,568.29,776,565.5,772.43ZM567.31,789c-.44.2-1.34-.07-1.86,0a4.54,4.54,0,0,0-1.34.38l-.13-.21c0-.32-.41-.47-.5-.14a.78.78,0,0,0,0,.21c-10.83-.08-21.66-.09-32.49-.13L515.16,789h-3.39a6.17,6.17,0,0,1-1.49-7.56,26.58,26.58,0,0,1,4.2-8.58s0,0,0,0c16.55,1.18,33.42.39,50,.45l.11,0c2.32,3.41,4.38,7.11,5.06,11.25A4.38,4.38,0,0,1,567.31,789Z" transform="translate(-314.66 -133.57)"/><path class="cls-1" d="M361.19,689.86a.65.65,0,0,0-.61.22c-5.3-.68-10.72,1.76-12.49,7.19-2.15,6.57-.07,13.17,7.2,14.51,6.41,1.17,13-1.54,14.89-8.2C371.9,697.34,367.44,690.93,361.19,689.86ZM369,702.08c-.85,6.57-7.45,9.51-13.44,8.34-3.64-.71-6.07-2.51-6.78-6.3A13.15,13.15,0,0,1,350,696c2.16-4,6.58-5,10.79-5l.09.05C365.94,692.44,369.71,696.63,369,702.08Z" transform="translate(-314.66 -133.57)"/><path class="cls-1" d="M396.19,717.52a.74.74,0,0,0,.08-.43,41.47,41.47,0,0,0-6-15.87,43.16,43.16,0,0,0,7.77-15,.51.51,0,0,0-.37-.67,6,6,0,0,0,3.41-7,6.34,6.34,0,0,0-7.52-4.1.54.54,0,0,0-.4.69,4.32,4.32,0,0,0-2,.88.7.7,0,0,0-.58-.43,70.31,70.31,0,0,0-16.15.27c-2.14-6.14-5.48-11.7-10.8-15.71l-.06,0a5.51,5.51,0,0,0-.32-3c-1.16-2.78-5.37-4.76-8-2.81a.55.55,0,0,0-.21.67,5.3,5.3,0,0,0-2.62,5.17.63.63,0,0,0-.33.16,41.25,41.25,0,0,0-10.27,15.58,98,98,0,0,0-15.59-.49.45.45,0,0,0-.44.36c-2.11-1.18-5.08-1.25-6.67.61a.53.53,0,0,0,0,.7,5.59,5.59,0,0,0-.79,6.77,5.34,5.34,0,0,0,3.46,2.27,41.84,41.84,0,0,0,7.16,15,62,62,0,0,0-9.12,15.56c-.14.35.21.62.53.6-6.21,2.13-3.42,12.84,3.47,11.08,3-.78,5.43-3.91,4.64-7.09a6.28,6.28,0,0,0-7.66-4.39,81.35,81.35,0,0,1,9.29-14.26,58.5,58.5,0,0,0,9,8.9,67.47,67.47,0,0,0,3.18,13.77c-5.26.67-10.57,1-15.69,2.26-.26.06-.17.4.06.43,5.12.66,10.81,0,16.27-1a32,32,0,0,0,10.3,14,5.9,5.9,0,0,0,.05,1.72,6.1,6.1,0,0,0,6.82,4.79,6.22,6.22,0,0,0,5.15-6.78.42.42,0,0,0,.15,0c4.93-2.45,8.08-6.84,10.06-12.08.59.1,1.19.21,1.79.29,3,.37,12.45,1.69,13.55-2.43a5.51,5.51,0,1,0,5.41-9Zm-75.17.56a5.25,5.25,0,0,1,5.89,2.75c1.27,2.6-.64,5.49-3.2,6.29a4.46,4.46,0,0,1-5.54-3.15,4.81,4.81,0,0,1,2.57-5.89A.66.66,0,0,0,321,718.08Zm72.86-42.51a5.11,5.11,0,0,1,5.84,2.86c1.12,2.53-.6,5.5-3.15,6.31C390.79,686.59,388,677,393.88,675.57Zm-3.56,1.36c-2.28,3.51.76,10.47,6.28,9l.35-.11a.33.33,0,0,0-.06.1,67,67,0,0,1-7.72,13.75,47,47,0,0,0-11.89-11.55,67.12,67.12,0,0,0-2.38-10.89A71.92,71.92,0,0,1,390.32,676.93Zm-12.1,20.76c-.16-2.49-.37-5.05-.68-7.63A48.38,48.38,0,0,1,388,701.14a57.11,57.11,0,0,1-9.55,9.61C378.65,706,378.45,701.44,378.22,697.69ZM375.66,687a67.28,67.28,0,0,0-14.07-6.73,68,68,0,0,1,11.72-2.88A61.29,61.29,0,0,1,375.66,687ZM356.8,655.15c1.84-.2,3.61.09,4.8,1.82a4.36,4.36,0,1,1-7.55,4.32C352.78,658.89,354.47,656.09,356.8,655.15Zm-4,6.44a5.89,5.89,0,0,0,7,3.2,5.74,5.74,0,0,0,3.44-3.49,38.74,38.74,0,0,1,9.58,14.78,72.42,72.42,0,0,0-13.49,3.47,91,91,0,0,0-16.09-3.46A40.31,40.31,0,0,1,352.78,661.59Zm-10,15.81a91.3,91.3,0,0,1,14.81,2.82,70.3,70.3,0,0,0-17.66,10A55.74,55.74,0,0,1,342.75,677.4Zm-21.08,7.47a4.28,4.28,0,0,1-2.36-1.6c-1.5-2.14-.49-5,1.43-6.42,2.11-.78,4.5-.84,5.88,1.42a4.67,4.67,0,0,1-1.19,6.1,4.51,4.51,0,0,1-3,.65A.46.46,0,0,0,321.67,684.87ZM331,701.49a73.33,73.33,0,0,1,7.21-7.42,84.46,84.46,0,0,0,.13,10.31c.12,1.69.28,3.42.48,5.17A55.64,55.64,0,0,1,331,701.49Zm7.38-10a66.42,66.42,0,0,0-8.54,8.48,49,49,0,0,1-7-13.68,5.63,5.63,0,0,0,3.39-.95,5.92,5.92,0,0,0,1.27-8,4.64,4.64,0,0,0-.83-.89c4.89.13,9.79.36,14.65.85A58,58,0,0,0,338.4,691.48Zm1.26,11.82a81.59,81.59,0,0,1,0-10.49,68.13,68.13,0,0,1,20.19-11.88,60.3,60.3,0,0,1,11.2,4.85,53.15,53.15,0,0,1,4.88,3.11c.36,2.54.61,5.11.8,7.71a125.41,125.41,0,0,1,.29,15.27,61.16,61.16,0,0,1-7,4.47,73.68,73.68,0,0,1-11.72,5.16A102,102,0,0,1,347.9,716a68.91,68.91,0,0,1-7.53-5.21C340,708.33,339.82,705.82,339.66,703.3Zm1,9.49a83.34,83.34,0,0,0,12.78,7.85c1,.51,2,1,3.05,1.49q-3.6,1.15-7.28,2c-1.78.42-3.58.73-5.39,1A62,62,0,0,1,340.66,712.79Zm18.73,33.6a4.83,4.83,0,0,1-5-4.14c-.33-2.83,1.48-4.45,3.69-5.65h0c2.59-.21,5.33,1.16,5.86,3.92A5,5,0,0,1,359.39,746.39Zm5.59-6.8a6.45,6.45,0,0,0-7-4.19.53.53,0,0,0-.43.54,6.45,6.45,0,0,0-4.11,4,39.86,39.86,0,0,1-8.95-13.31c2.47-.52,4.88-1.11,7.15-1.69s4.49-1.25,6.69-2a72.15,72.15,0,0,0,15.41,5.34A25.73,25.73,0,0,1,365,739.59ZM374.23,727a55.55,55.55,0,0,1-7-1.92q-3.56-1.23-7-2.73a73.81,73.81,0,0,0,12.86-6.1q1.95-1.17,3.85-2.51A49.67,49.67,0,0,1,374.23,727Zm15.8-1.46a.46.46,0,0,0-.35.83l-2.42,1a23.18,23.18,0,0,1-4.9.52,32.74,32.74,0,0,1-5-.33c-.47-.06-.93-.15-1.4-.22a56.81,56.81,0,0,0,2.49-14.64,61.79,61.79,0,0,0,10.63-10A45.27,45.27,0,0,1,395,717.35a5,5,0,0,0-1.53.16.12.12,0,0,0-.17-.11,5.92,5.92,0,0,0-3.53,7.52c.09.21.21.4.32.6Zm6.26,1.46a4.57,4.57,0,0,1-5.6-2.86,5.79,5.79,0,0,1,1.52-5.34.46.46,0,0,0,.54.18c2.25-.63,4.83-.36,6,2A4.49,4.49,0,0,1,396.29,727Z" transform="translate(-314.66 -133.57)"/><path class="cls-1" d="M375.28,523.41c1.86-4.33-1.22-8.71-5.4-11.22,1.79-3,4-6.52,4.15-9.54a7.39,7.39,0,0,0-.77-.82c-.5-.28-1-.52-1.57-.77a16.64,16.64,0,0,0,3.73-3.45c.41-.6.55-1,.09-1.6-.79-1.07-3.34-1.77-4.53-2.31-1.68-.76-3.39-1.46-5.11-2.12a.67.67,0,0,0-.81.46c-.29,2-.59,4.06-.83,6.09-.6-.21-1.21-.42-1.8-.64a.58.58,0,0,0-1,.13c-4.65,9.67-10.08,19.36-13.63,29.51-.56-.14-1.12-.3-1.68-.43a.46.46,0,0,0-.47-.22c-3,.29-4.64,4.15-3.16,6.62h0a.52.52,0,0,0,.3.65l2.82,1.1c-1.52,3-3.36,6.23-4.17,9.47a.47.47,0,0,0,0,.31.42.42,0,0,0,0,.71l1.62.73c-1.48,1.56-2.92,3.15-4.47,4.65a.66.66,0,0,0,.29,1.09,70.35,70.35,0,0,1,10.44,4.31.7.7,0,0,0,1-.59,39.29,39.29,0,0,0,.23-6.13,3.57,3.57,0,0,0,3,.35c1.21-.61,1.37-2.46,1.76-3.54.84-2.31,2.13-4.41,3-6.7l.71.23a.4.4,0,0,0,.19.74,5.79,5.79,0,0,0,5.13-4.16c.38-1.34,0-4.06-1.72-4.14-.74-.34-1.5-.65-2.26-1,.51-1,1-2.06,1.5-3.09.75,1,2.86,1.38,3.81,1.44a8.91,8.91,0,0,0,5.54-1.68.57.57,0,0,0,.18.2c7,5,5.87,18.23,3,25.08a29.43,29.43,0,0,1-14,14.58.47.47,0,0,0-.36-.41.49.49,0,0,0-.42-.54l-1.1-.16a.54.54,0,0,0-.44.12c-13.33-.13-26.64-.67-40-1a.36.36,0,0,0-.65.09,16.85,16.85,0,0,0-.54,3.46,5.69,5.69,0,0,0,.38,3.12.4.4,0,0,0,.72-.09,11,11,0,0,0-.13-2.8,16.12,16.12,0,0,1,.2-2.86c13.65,1,27.4,1.17,41.08,1.29l0,.42-.15.07c-.32.15-.19.62.08.71,0,.35,0,.71-.05,1.06a.44.44,0,0,0,0,.81c0,.24,0,.48,0,.72-13.48-.44-27.19.06-40.67.6a.46.46,0,0,0,0,.91c9.56.16,19.24.28,28.86.08,0,2.42,0,4.84.09,7.26a9.62,9.62,0,0,0,.14,2.83c-3.86,0-7.72.08-11.58.27a.37.37,0,0,0-.36.27.35.35,0,0,0-.56.18c-.6,3.21-1.6,7.14-1,10.39a.6.6,0,0,0,.43.43c4.7,1.27,10.76.11,15.6,0l18.54-.5a.7.7,0,0,0,.69-.68,27.47,27.47,0,0,0-1.73-9.11.64.64,0,0,0,.2-.85l-.17-.31a.64.64,0,0,0-.86-.23l-.22.15a.56.56,0,0,0-.12.84v0a9,9,0,0,0-4.29-.67l-4.36-.09-1.71,0q-.25-5.22,0-10.46c1.07,0,2.14-.09,3.21-.15.21.11.51.08.56-.2.1-.54.19-1.08.28-1.63,11.21-.29,19.67-11.3,22.37-21.38C384.64,541.49,384.22,527.6,375.28,523.41Zm-20,49.67a62.41,62.41,0,0,0-.42,10.41l-3.63,0H349l0-.11a.46.46,0,0,0-.41-.32,38.47,38.47,0,0,0-.07-4.52c-.09-1.72-.17-3.44-.29-5.16Q351.73,573.23,355.23,573.08ZM366.42,585c.49,1.66,1.92,6,1.42,6.87-.85,1.5-2.21,1.13-3.6,1.32-3.89.53-8.08.25-12,.37l-10.91.34c-2.47.08-5.11-.07-6.17-2.95-.58-1.58.33-4.85.5-6.55a.46.46,0,0,0,.24.08c5.82.16,11.64.18,17.46.26C357.13,584.81,362.59,585.94,366.42,585Zm-.23-91.89c2.21.88,4.39,1.84,6.51,2.91.31.15,1.17.41,1.37.69.5.15.45.29-.17.41l-.53.52a18.09,18.09,0,0,0-2.6,2.65.58.58,0,0,0-.11.24c-1.78-.78-3.66-1.44-5.51-2.09C365.53,496.69,365.86,494.91,366.19,493.13Zm-16.63,55.94a26.85,26.85,0,0,0-.46,5.4,71.31,71.31,0,0,0-8.79-3.58,38,38,0,0,0,3.67-4.45c1.7.75,3.39,1.49,5.1,2.21.17.07.36.16.55.26A.84.84,0,0,0,349.56,549.07Zm5.69-6c-.55,1.19-.91,3.49-1.69,4.42-1.46,1.73-4-.07-5.63-.67l-5.54-2.06,0,0c1.66-3,2.7-6.42,4-9.56,3.57,1.4,7.21,2.83,10.84,4A41,41,0,0,0,355.25,543.05Zm7.09-9.78c2.36,1.78.39,4.56-1.78,5.84-1.34-1.43-4.19-1.86-5.87-2.44-3.8-1.3-7.59-2.6-11.42-3.79a.18.18,0,0,0,0-.1,4.06,4.06,0,0,1,2.55-5.2l.07,0C351.38,529.38,356.83,531.45,362.34,533.27Zm-2.71-2.42a88.11,88.11,0,0,0-10.87-3.48c2.1-4.81,4.49-9.49,6.76-14.22,1.7-3.57,6.52-10.16,6-14a.53.53,0,0,0,1,0c0-.11,0-.23.05-.34a73.18,73.18,0,0,0,9.85,4v.13a.62.62,0,0,0,.76.53,8.85,8.85,0,0,0-2.47,3.69l-2,4.05-.27.58a.7.7,0,0,0-.36.75q-1.16,2.38-2.28,4.77C363.71,521.78,361.62,526.3,359.63,530.85ZM368,528a6.28,6.28,0,0,1-3.49,0,14.82,14.82,0,0,0-2-.66v-.11s0,0,0-.07c2-4.07,3.94-8.15,5.94-12.22.23-.48.5-1,.79-1.49,3.93,2.5,7.44,6.67,3.71,11.22A10.13,10.13,0,0,1,368,528Zm-7.8,42.12c.06-.44.13-.89.19-1.33A28.17,28.17,0,0,0,376.71,551c2.18-7.07,2.36-19.12-4.37-23.92a11.64,11.64,0,0,0,1.26-1.17,9.35,9.35,0,0,0,1.16-1.53C391.52,536.09,378.94,568.15,360.22,570.09Z" transform="translate(-314.66 -133.57)"/><path class="cls-1" d="M379.57,347.31a76.73,76.73,0,0,0-3.14-10.63c-.63-1.51-1.72-3.07-3.52-2.58a.53.53,0,0,0-.33.29,112.4,112.4,0,0,0-21.12,8.36v-.05c-6.51-17.23-13.65-34.3-20.27-51.51a.6.6,0,0,0-.32-.34c.23-.49-.12-1.21-.76-1-2.3.83-4.6,1.62-6.95,2.31-1.47.43-3.65.41-4.43,1.85a0,0,0,0,0,0,.06,1.34,1.34,0,0,0,.27.13,1.7,1.7,0,0,0-.19.19c-.38,0-.79.35-.62.77,8.84,21.37,18,42.63,26.67,64.05a.77.77,0,0,0,1.26.23.44.44,0,0,0,.35.07c10.85-2.84,22.16-7.23,32.54-11.48a.52.52,0,0,0,.29-.25A.38.38,0,0,0,379.57,347.31Zm-26.89,8.78c.14,0-6.54,2.26-6.42,1.77,0-.07-.09-.09-.1,0l0,.07c0-.41-.06-.82-.11-1.23a.51.51,0,0,0-.84-.36c-8.27-20.59-16.68-41.18-25.77-61.42a2.31,2.31,0,0,1,1.06-.46h0a21.16,21.16,0,0,0,3-.93q3.3-.94,6.54-2.15a.33.33,0,0,0,0,.14c5.36,17.4,12,35.43,20.33,51.66a.47.47,0,0,0,.32.25.11.11,0,0,0,.11,0h.05a.9.9,0,0,0,.27-.07c7.37-1.61,15.22-4.8,22-8l.11-.08c2.08.73,2.55,4.11,3.17,6s1.33,3.84,2.06,5.73c-5.83,1.66-11.52,3.88-17.22,5.93C358.45,354,355.56,355,352.68,356.09Z" transform="translate(-314.66 -133.57)"/><path class="cls-1" d="M445,249.67c-11.38,4.8-22.91,9.19-34.38,13.76a.62.62,0,0,0-.39.64.49.49,0,0,0-.19.56c3.82,12.79,8.49,25.36,12.8,38q3.15,9.22,6.29,18.43c.71,2.09,1.1,6.95,3.56,7.75a.61.61,0,0,0,.64-.2q2.6-1.32,5.21-2.6a45.76,45.76,0,0,0,5.43-2.58.54.54,0,0,0-.1-1,.61.61,0,0,0,0-.11,126.3,126.3,0,0,1-9.05-24.82c-.21-.86-1.54-.5-1.33.37A93.4,93.4,0,0,0,443,322.57c-3.33.83-6.71,2.88-9.66,4.69a.48.48,0,0,0-.19-.09l-.3-.05a.57.57,0,0,0-.6.22c-.66-2.28-2.25-8.11-2.5-8.84l-2.22-6.5L422,295.74c-3.56-10.42-6.88-21-10.83-31.24,11.7-4,23.18-8.77,34.55-13.63C446.55,250.52,445.85,249.33,445,249.67Z" transform="translate(-314.66 -133.57)"/><path class="cls-1" d="M421.22,328.94l-.31.12c-.49-3.93-2.84-7.73-5.35-10.67a.66.66,0,0,0-1-.48A176.19,176.19,0,0,1,396,326.48c-.4-1.46-1.27-2.81-1.76-4.25a41.94,41.94,0,0,1-1.27-4.45c5.09-1.62,10.24-3.73,15.19-5.77a.37.37,0,0,0,.23-.1l.24-.1a.34.34,0,0,0-.18-.65l-.08,0c-.15-.46-.3-.92-.43-1.39a.54.54,0,0,0-.1-.2c-.66-3.2-1.89-6.35-2.86-9.47a.7.7,0,0,0-1-.41c-5.16,2.29-10.34,4.54-15.43,7a.49.49,0,0,0,0-.36c-1.57-6-3.55-11.83-4.88-17.9,7.63-3.11,15.56-6.34,22.72-10.4a.5.5,0,0,0,.25-.43c.37.23,1,0,.79-.55-.54-1.69-1.08-3.39-1.64-5.08a18,18,0,0,0-1.71-4.46.51.51,0,0,0-.92.16l-.28-.08a.68.68,0,0,0-.28-.79l-.4-.27a.63.63,0,0,0-.76.09c-.08.1-.15.2-.23.29a.59.59,0,0,0,0,.8.38.38,0,0,0,.09.32c-1.19.3-3.36.42-4.16.64-1.69.48-3.36,1.1-5,1.68q-4.5,1.56-8.92,3.33-7.78,3.1-15.27,6.88a.34.34,0,0,0-.6.09,2.19,2.19,0,0,0-.07.89c-.09-.19-.16-.38-.25-.57-.25-.53-1.17-.15-1,.41,4,10.51,7.16,21.31,10.45,32.07q2.35,7.69,4.7,15.4l2.69,8.8c.16.55,1.72,4.61,2.46,6.37a.54.54,0,0,0-.58.26l-.15.22a.61.61,0,0,0,.21.8,3.28,3.28,0,0,1,.31.2.62.62,0,0,0,.84-.22,2.17,2.17,0,0,0,.29-.75.26.26,0,0,0,.35.21c5.18-1.58,10-4.51,15-6.72q9.35-4.15,18.94-7.72C422.42,330,422.06,328.63,421.22,328.94Zm-33.77,15.23a.3.3,0,0,0-.07.1c.3-2.37-1.88-6.31-2.42-8.1q-3-9.9-6-19.8c-3.42-11.21-6.27-22.92-11.07-33.66a.25.25,0,0,0,.17-.23c0-.19.05-.39.08-.6a.77.77,0,0,0,.24-.06,240.15,240.15,0,0,1,22.23-9.44c3.25-1.17,6.92-1.87,10-3.32a12,12,0,0,0,1.71-.69c.34.11.69.2,1,.29a29,29,0,0,0,1.24,3.65q.87,2.34,1.75,4.68a.44.44,0,0,0-.34,0c-7.72,3-15.29,6.81-22.78,10.35a.52.52,0,0,0-.54.29.6.6,0,0,0,0,.91c1,6.14,2.29,12.52,4.83,18.22a.5.5,0,0,0,.76.2c-.14.39.2,1,.67.77,5-2.05,10-4.28,14.92-6.48a72.69,72.69,0,0,0,3.15,9.52.42.42,0,0,0,.42.26c0,.11.09.21.13.31a53.14,53.14,0,0,0-15.16,5.44.55.55,0,0,0-.22.69s0,.06,0,.09c.17,2.91.83,7,2.89,9.33-.36.28-.15.95.36.79a114.69,114.69,0,0,0,19.5-8.48c2.33,3.22,3.45,6.65,4.77,10.33-5,1.88-9.9,3.85-14.77,6C399.11,338,392.55,340.37,387.45,344.17Z" transform="translate(-314.66 -133.57)"/><path class="cls-1" d="M445.21,279.36a.66.66,0,0,0-.83-.25.51.51,0,0,0-.24,0c-4.74,1.56-9.41,3.3-14.09,5l-.06,0c-1.4-3.95-2.87-7.89-4.42-11.79-.31-.79-1.6-.46-1.29.35q2.5,6.56,5.27,13c.2.46.93.18.89-.27,4.59-1.7,9.19-3.37,13.73-5.23a35.52,35.52,0,0,1,4.27,9.46.37.37,0,0,0-.18,0c-4.75,1.15-9.49,3.75-13.78,6-.73.39-.09,1.47.64,1.1,4.44-2.21,9.2-3.82,13.58-6.08a.48.48,0,0,0,.23-.24.54.54,0,0,0,.67-.63A29.93,29.93,0,0,0,445.21,279.36Z" transform="translate(-314.66 -133.57)"/><path class="cls-1" d="M451.89,260.11c-.87-3.45-2-8-4.37-10.7-.35-.4-1,0-.86.5a43.19,43.19,0,0,0,2.15,4.89,48,48,0,0,1,1.94,5.59c-8.81,2.81-17.54,6.87-26,10.62-.5.22-.14,1.07.37.88,8.79-3.24,18-6.45,26.37-10.65a.46.46,0,0,0,.23-.57A.52.52,0,0,0,451.89,260.11Z" transform="translate(-314.66 -133.57)"/><path class="cls-1" d="M499.61,228.8c-14.34,3.93-28.49,9.7-42.2,15.4a.71.71,0,0,0-.3,1.05.44.44,0,0,0-.24.48,27.32,27.32,0,0,0,5.29,12.33c.13.16.46.08.37-.16-1.62-4.08-3-8.22-4.51-12.32a.66.66,0,0,0-.15-.21c13.91-5.45,28.13-10.07,42-15.46C500.59,229.65,500.34,228.6,499.61,228.8Z" transform="translate(-314.66 -133.57)"/><path class="cls-1" d="M463.53,258.36a.17.17,0,0,0,0,.33A.17.17,0,0,0,463.53,258.36Z" transform="translate(-314.66 -133.57)"/><path class="cls-1" d="M511.36,299.65c-4.4,1.27-8.86,3.73-12.94,5.92-6.77-17.43-14.18-34.76-21.52-52l.25-.12c.57-.3.15-1.08-.41-1-4.65.87-9.38,3.07-13.8,4.72-.66.24-.4,1.28.29,1.06C467.4,257,472,255.88,476,254a472.89,472.89,0,0,0,21.34,52.17.45.45,0,0,0,.15.18.41.41,0,0,0,.53.36c4.52-1.71,9.65-3.49,13.72-6.09A.54.54,0,0,0,511.36,299.65Z" transform="translate(-314.66 -133.57)"/><path class="cls-1" d="M511.74,298.64c-7.67-16.61-15-33.26-21.49-50.37,5.43-2,10.83-4.19,16.19-6.39.8-.33.47-1.64-.36-1.32l-.14.05c-.72-4-2.66-8-4.24-11.69-.25-.57-1.21-.16-1,.42,1.33,3.82,2.39,8.06,4.16,11.71-5.2,2-10.39,4.09-15.52,6.27a.73.73,0,0,0-.51.24.62.62,0,0,0,0,.92,443.59,443.59,0,0,0,21.88,50.74C511.09,299.89,512.05,299.3,511.74,298.64Z" transform="translate(-314.66 -133.57)"/><path class="cls-1" d="M379.64,160.87h.11a.26.26,0,0,0,0-.5,7,7,0,0,0-.8-.1,33.71,33.71,0,0,0-29.28-8.1.54.54,0,0,0-.43.36,32.45,32.45,0,0,0-3.7.77.59.59,0,0,0-.46.62c-21.05,8-27.6,35.47-15.35,52.14a.35.35,0,0,0-.19.56c7.79,9.29,18.66,16.27,30.88,16.26a5.6,5.6,0,0,0,1,.57c.31.14.57-.28.27-.46-.07,0-.12-.09-.18-.12,1.07,0,2.16-.11,3.25-.26a28,28,0,0,0,10.87-3.87.3.3,0,0,0,.25-.16A34,34,0,0,0,390.07,199,38.17,38.17,0,0,0,379.64,160.87Zm8,14.16a5.32,5.32,0,0,0-3.18-.31,32.12,32.12,0,0,0-1.15-3.14,31.76,31.76,0,0,0-2.62-4.89c.8.05,1.6.12,2.4.1A37.78,37.78,0,0,1,387.66,175Zm-5-8.8c-.76,0-1.53,0-2.28,0a31.6,31.6,0,0,0-4.54-5.29c.64,0,1.29,0,1.94,0A35.58,35.58,0,0,1,382.69,166.23Zm-5.8-6-1.3,0a.3.3,0,0,0-.27.17,32.17,32.17,0,0,0-12-6.82A32.74,32.74,0,0,1,376.89,160.23Zm-51.62,32.93c-3.71-16.93,6.14-30.9,20.35-38.57a.67.67,0,0,0,.28,0,31,31,0,0,1,38,23.3,32.55,32.55,0,0,1,.5,11.58h-.06c-.37,0-.37.5,0,.58a33.53,33.53,0,0,1-1.49,6l0,0a.31.31,0,0,0-.44.45l.24.22a33.28,33.28,0,0,1-6.79,11.06c-.21-.36-.76,0-.57.35a1.29,1.29,0,0,0,.09.16,30.18,30.18,0,0,1-13,7.91C345.89,221.12,328.82,209.38,325.27,193.16Zm13.46,21a33.26,33.26,0,0,0,3.62,1.86,31.13,31.13,0,0,0,9,2.4.23.23,0,0,0,0,.2,7.91,7.91,0,0,0,1.61,2.16l.22.19A39.46,39.46,0,0,1,338.73,214.14ZM362,221.67c-.66.05-1.32.06-2,.06a6.33,6.33,0,0,1-1.72-2.78.24.24,0,0,0-.47.13,7.27,7.27,0,0,0,1.33,2.63,32.7,32.7,0,0,1-4.66-.48,8.71,8.71,0,0,1-1.17-.85,8.3,8.3,0,0,1-1.52-1.92,28.1,28.1,0,0,0,11.9-1.46l1.77,2.11a11.57,11.57,0,0,0,1.57,1.78A28.46,28.46,0,0,1,362,221.67Zm5.56-.93s0,0,0,0a9.88,9.88,0,0,0-1.64-2l-1.64-1.87A30.4,30.4,0,0,0,370,214a10.49,10.49,0,0,0,3.95,4.18A27.38,27.38,0,0,1,367.58,220.74Zm7.19-3.05a9.89,9.89,0,0,1-2-1.3,9.67,9.67,0,0,1-2.18-2.75s0,0,0,0a33.1,33.1,0,0,0,5.32-4.43,10.3,10.3,0,0,0,1.48,1.88,6.16,6.16,0,0,0,2.85,1.82c.26.05.52-.27.28-.48-.81-.7-1.81-1.12-2.61-1.87a9.36,9.36,0,0,1-1.53-1.85,34.81,34.81,0,0,0,3.95-5.07l2,1.59a6.46,6.46,0,0,0,1.92,1.34.27.27,0,0,0,.31-.39,6.25,6.25,0,0,0-1.81-1.49l-2.11-1.54a35.75,35.75,0,0,0,2.86-5.66,8.31,8.31,0,0,0,5,2.11c.05,0,.07,0,.11,0A32,32,0,0,1,374.77,217.69Zm14.07-19c0,.15-.11.29-.15.44a.36.36,0,0,0-.17-.15c-1-.4-2.07-.55-3.07-1a10,10,0,0,1-1.75-1.11,35,35,0,0,0,1.77-6.55,24.71,24.71,0,0,1,4.62,1.63A37.7,37.7,0,0,1,388.84,198.65Zm-3.26-9.06a33.38,33.38,0,0,0,.35-6.25,19.79,19.79,0,0,0,3,1c.31.07.53-.37.23-.53a23.41,23.41,0,0,0-3.23-1.17,33.14,33.14,0,0,0-1.29-7.48,5.52,5.52,0,0,1,3.36.71,36.84,36.84,0,0,1,2.17,15.33A10.34,10.34,0,0,0,385.58,189.59Z" transform="translate(-314.66 -133.57)"/><path class="cls-1" d="M366.46,194.45c0-4.63-4.32-7.12-8.18-8.43-.19-.07-.4-.12-.6-.18-.16-5.29-.24-10.59-.49-15.88a23.55,23.55,0,0,1,4.72,2.16.48.48,0,0,0,.48-.83,20.72,20.72,0,0,0-5.26-2.57c-.1-1.91-.21-3.82-.37-5.72a.55.55,0,0,0-1.1,0q-.11,2.66-.09,5.31a11.8,11.8,0,0,0-4.77-.05c0-1.6.06-3.2.1-4.8.36.06.81-.24.64-.66l-.62-1.65a.67.67,0,0,0-1.31.18c-.07,2.45-.12,4.9-.18,7.35A9.73,9.73,0,0,0,347.1,170c-2.9,2.2-4.65,6.14-3.3,9.69a9.16,9.16,0,0,0,5.37,5q0,8.07.14,16.15a24.24,24.24,0,0,1-7.58-5.44c-.57-.6-1.41.28-.9.89a20.89,20.89,0,0,0,8.51,6.08c0,1.66.05,3.31.1,5a.5.5,0,0,0,1,0c0-1.53,0-3.06,0-4.59a16.36,16.36,0,0,0,6.57.67c.23,0,.45-.06.68-.09a14.1,14.1,0,0,1,.14,4.25.37.37,0,0,0-.61-.3l-.28.27a.42.42,0,0,0,0,.58l.37.38a.47.47,0,0,0,.56.07c.95-.73.38-.64.86-1.61.39-.81.24-2.35,0-3.86C362.84,202.08,366.51,199,366.46,194.45Zm-17.27-11.16a8.92,8.92,0,0,1-2.81-2.11c-3.22-3.73-1-8.84,2.62-10.82l.39-.19Q349.24,176.73,349.19,183.29Zm1.58-13.65a10,10,0,0,1,4.81-.1c.07,5.3.4,10.62.65,15.89a54.08,54.08,0,0,1-5.67-1.55Q350.64,176.77,350.77,169.64Zm-.31,31.66q0-8,.09-16.08c1.93.67,4,1.13,5.75,1.65.15,3.23.31,6.46.5,9.69,0,.75.42,3.09.74,5.44A14,14,0,0,1,350.46,201.3Zm8.11.47a15.56,15.56,0,0,1-.22-1.74c-.16-2.7-.3-5.39-.44-8.09q-.11-2.33-.18-4.65a12.61,12.61,0,0,1,4.09,1.88C366.92,193.09,364.31,200.25,358.57,201.77Z" transform="translate(-314.66 -133.57)"/><path class="cls-1" d="M424.28,867a45.45,45.45,0,0,1-4.3-2.16c-1.21-.69-2.41-1.81-3.78-2.11-.37-.08-.76.33-.52.68.75,1.16,2.18,1.79,3.35,2.47.84.49,1.7.94,2.58,1.37-2.87-.12-8.34,0-13.29.18-.32-22.81-1.19-45.62-1.89-68.42a.65.65,0,0,0-1-.5.61.61,0,0,0-.48-.34,141,141,0,0,0-15.79-.55.47.47,0,0,0-.46.64.7.7,0,0,0,0,.14c-.34,11.53.57,23.22.9,34.76s.59,23.13,1,34.7l-8.89.08h0c0-14-.19-28-.34-42.06a.65.65,0,0,0-1.1-.45,34.1,34.1,0,0,0-7.07-.21c-2.38.07-5-.08-7.28.83a.29.29,0,0,0-.15.18c0-.31,0-.62-.05-.93a.55.55,0,0,0-1.09,0c-.22,14.17.32,28.49,1,42.64a.54.54,0,0,0,0,.15l-8.7.08a216,216,0,0,0-.76-30.63.59.59,0,0,0-.56-.52,8.27,8.27,0,0,1,.13-1.66.49.49,0,0,0-.73-.53.64.64,0,0,0-.29-.12c-4.58-.5-9.41-.1-14,0a.55.55,0,0,0-.53.66.54.54,0,0,0-.24.49c.23,10.7.46,21.43,1,32.12a.48.48,0,0,0,.06.22c-3.14,0-6.29,0-9.41.13-.23-22.08-.8-44.23-1.69-66.29a33.2,33.2,0,0,0,4.29,7c.55.7,1.51-.28,1-1a32.65,32.65,0,0,1-4.83-8.37.67.67,0,0,0-1.21-.16,23.32,23.32,0,0,0-3.56,8.69c-.13.68.87,1,1,.29a24.21,24.21,0,0,1,2.14-5.73c.15,21.86.62,43.78,1.42,65.63-1.54.1-3.07.23-4.59.43a.33.33,0,0,0,0,.66c1.53.18,3.08.28,4.64.36.05,1.32.09,2.64.14,4a.66.66,0,0,0,1.32,0c0-1.3,0-2.6-.05-3.89,7.18.26,14.52-.25,21.62-.31l26.52-.24,26.52-.24c4.61,0,9.23,0,13.84-.12h.2c-1.12.66-2.23,1.31-3.34,2a.61.61,0,0,0,.61,1c2.26-1.26,4.52-2.54,6.76-3.84A.69.69,0,0,0,424.28,867Zm-73.41,1.22c-3,0-6.07,0-9.14-.06a.44.44,0,0,0,.06-.23c0-10.7-.35-21.42-.66-32.12,0,0,0,0,0,0,4.47.08,9.13.44,13.56,0l.11,0a22,22,0,0,1,.06,2.43.3.3,0,0,0,.22.3c.39,9.92.85,19.8.88,29.73Zm23.06-.21-7.6.07a.37.37,0,0,0,0-.15c.1-13.78.08-27.71-.63-41.48a.24.24,0,0,0,.14.09l.43.12a.22.22,0,0,0,.27-.23.55.55,0,0,0,.48.34c.74-.06,1.47-.11,2.21-.15,1.11-.06,2.23-.12,3.34-.14,2.47-.06,5,.16,7.44,0,.14,13.83.22,27.66.55,41.49v0Zm24.21-.22-6.49.06c-.13-11.57-.46-23.13-.77-34.69s-.11-23.09-1.16-34.5a133.44,133.44,0,0,0,15.21.66l.23-.05c.68,22.73,1.2,45.47,2.26,68.19C402.89,867.62,399,867.79,398.14,867.8Z" transform="translate(-314.66 -133.57)"/><path class="cls-1" d="M395.25,769.59a32.76,32.76,0,0,0-10.65,5.59c-.53.42.18,1.35.73.94a34.68,34.68,0,0,1,6.54-3.8c-4,7.13-7.45,14.53-11.83,21.48-1.36,2.15-4.67,9.28-7.43,8.77-.93-.18-2.73-3.51-3.28-4.22l-4.59-5.9a.68.68,0,0,0-1.13.3A178.66,178.66,0,0,1,359.09,812c-.29,1-.55,3.23-1.24,4-1.52,1.67-1.31.81-3.06-.54-2.9-2.23-5.37-5.42-8-8a.6.6,0,0,0-1,.27,64.46,64.46,0,0,0-2.64,17.61.44.44,0,0,0,.87,0c.07-2.54.14-14.65,2.87-15.3,1.8-.43,8.74,8.22,10.08,9.58a.66.66,0,0,0,1.1-.29,173.38,173.38,0,0,0,5.39-19c.21-1,.25-3.3.83-4.08,1.14-1.49.54-1,2,.6,2.42,2.54,4.41,5.67,6.55,8.44a.69.69,0,0,0,1.08-.14c7.36-10.2,14.94-21.42,19.32-33.29a.28.28,0,0,0,0-.09c.43-.17.87-.32,1.31-.47a125.4,125.4,0,0,1-2.6,14.77.61.61,0,0,0,1.17.32c1.88-5,2.55-10.73,2.87-16.07A.68.68,0,0,0,395.25,769.59Z" transform="translate(-314.66 -133.57)"/></svg>